# Blender 4.3.2
# www.blender.org
mtllib compass body.mtl
o Cylinder
v 0.250000 -0.000000 -1.799032
v 0.050000 -0.000000 -2.000000
v 0.191421 -0.000000 -1.941138
v 0.250000 -0.350974 -1.764464
v 0.050000 -0.390181 -1.961571
v 0.191421 -0.378697 -1.903839
v 0.250000 -0.688460 -1.662089
v 0.050000 -0.765367 -1.847759
v 0.191421 -0.742841 -1.793378
v 0.250000 -0.999489 -1.495841
v 0.050000 -1.111140 -1.662939
v 0.191421 -1.078439 -1.613997
v 0.250000 -1.272108 -1.272108
v 0.050000 -1.414214 -1.414214
v 0.191421 -1.372592 -1.372592
v 0.250000 -1.495841 -0.999489
v 0.050000 -1.662939 -1.111140
v 0.191421 -1.613997 -1.078439
v 0.250000 -1.662089 -0.688460
v 0.050000 -1.847759 -0.765367
v 0.191421 -1.793378 -0.742841
v 0.250000 -1.764464 -0.350974
v 0.050000 -1.961571 -0.390181
v 0.191421 -1.903839 -0.378697
v 0.250000 -1.799032 0.000000
v 0.050000 -2.000000 0.000000
v 0.191421 -1.941138 0.000000
v 0.250000 -1.764464 0.350974
v 0.050000 -1.961571 0.390181
v 0.191421 -1.903839 0.378697
v 0.250000 -1.662089 0.688460
v 0.050000 -1.847759 0.765367
v 0.191421 -1.793378 0.742841
v 0.250000 -1.495841 0.999489
v 0.050000 -1.662939 1.111140
v 0.191421 -1.613997 1.078439
v 0.250000 -1.272108 1.272108
v 0.050000 -1.414214 1.414214
v 0.191421 -1.372592 1.372592
v 0.250000 -0.999489 1.495841
v 0.050000 -1.111140 1.662939
v 0.191421 -1.078439 1.613997
v 0.250000 -0.688460 1.662089
v 0.050000 -0.765367 1.847759
v 0.191421 -0.742841 1.793378
v 0.250000 -0.350974 1.764464
v 0.050000 -0.390181 1.961571
v 0.191421 -0.378697 1.903839
v 0.250000 -0.000000 1.799032
v 0.050000 -0.000000 2.000000
v 0.191421 -0.000000 1.941138
v 0.250000 0.350974 1.764464
v 0.050000 0.390181 1.961571
v 0.191421 0.378697 1.903839
v 0.250000 0.688460 1.662089
v 0.050000 0.765367 1.847759
v 0.191421 0.742841 1.793378
v 0.250000 0.999489 1.495841
v 0.050000 1.111140 1.662939
v 0.191421 1.078439 1.613997
v 0.250000 1.272108 1.272108
v 0.050000 1.414214 1.414214
v 0.191421 1.372592 1.372592
v 0.250000 1.495841 0.999489
v 0.050000 1.662939 1.111140
v 0.191421 1.613997 1.078439
v 0.250000 1.662089 0.688460
v 0.050000 1.847759 0.765367
v 0.191421 1.793378 0.742841
v 0.250000 1.764464 0.350974
v 0.050000 1.961571 0.390181
v 0.191421 1.903839 0.378697
v 0.250000 1.799032 0.000000
v 0.050000 2.000000 0.000000
v 0.191421 1.941138 0.000000
v 0.250000 1.764464 -0.350974
v 0.050000 1.961571 -0.390181
v 0.191421 1.903839 -0.378697
v 0.250000 1.662089 -0.688460
v 0.050000 1.847759 -0.765367
v 0.191421 1.793378 -0.742841
v 0.250000 1.495841 -0.999489
v 0.050000 1.662939 -1.111140
v 0.191421 1.613997 -1.078439
v 0.250000 1.272108 -1.272108
v 0.050000 1.414214 -1.414214
v 0.191421 1.372592 -1.372592
v 0.250000 0.999489 -1.495841
v 0.050000 1.111140 -1.662939
v 0.191421 1.078439 -1.613997
v 0.250000 0.688460 -1.662089
v 0.050000 0.765367 -1.847759
v 0.191421 0.742841 -1.793378
v 0.250000 0.350974 -1.764464
v 0.050000 0.390181 -1.961571
v 0.191421 0.378697 -1.903839
v -0.250000 0.000000 -1.799032
v -0.050000 0.000000 -2.000000
v -0.191421 0.000000 -1.941138
v -0.050000 -0.390181 -1.961571
v -0.250000 -0.350974 -1.764464
v -0.191421 -0.378697 -1.903839
v -0.050000 -0.765367 -1.847759
v -0.250000 -0.688460 -1.662089
v -0.191421 -0.742841 -1.793378
v -0.050000 -1.111140 -1.662939
v -0.250000 -0.999489 -1.495841
v -0.191421 -1.078439 -1.613997
v -0.050000 -1.414214 -1.414214
v -0.250000 -1.272108 -1.272108
v -0.191421 -1.372592 -1.372592
v -0.050000 -1.662939 -1.111140
v -0.250000 -1.495841 -0.999489
v -0.191421 -1.613997 -1.078439
v -0.050000 -1.847759 -0.765367
v -0.250000 -1.662089 -0.688460
v -0.191421 -1.793378 -0.742841
v -0.050000 -1.961571 -0.390181
v -0.250000 -1.764464 -0.350974
v -0.191421 -1.903839 -0.378697
v -0.050000 -2.000000 0.000000
v -0.250000 -1.799032 0.000000
v -0.191421 -1.941138 0.000000
v -0.050000 -1.961571 0.390181
v -0.250000 -1.764464 0.350974
v -0.191421 -1.903839 0.378697
v -0.050000 -1.847759 0.765367
v -0.250000 -1.662089 0.688460
v -0.191421 -1.793378 0.742841
v -0.050000 -1.662939 1.111140
v -0.250000 -1.495841 0.999489
v -0.191421 -1.613997 1.078439
v -0.050000 -1.414214 1.414214
v -0.250000 -1.272108 1.272108
v -0.191421 -1.372592 1.372592
v -0.050000 -1.111140 1.662939
v -0.250000 -0.999489 1.495841
v -0.191421 -1.078439 1.613997
v -0.050000 -0.765367 1.847759
v -0.250000 -0.688460 1.662089
v -0.191421 -0.742841 1.793378
v -0.050000 -0.390181 1.961571
v -0.250000 -0.350974 1.764464
v -0.191421 -0.378697 1.903839
v -0.050000 0.000000 2.000000
v -0.250000 0.000000 1.799032
v -0.191421 0.000000 1.941138
v -0.050000 0.390181 1.961571
v -0.250000 0.350974 1.764464
v -0.191421 0.378697 1.903839
v -0.050000 0.765367 1.847759
v -0.250000 0.688460 1.662089
v -0.191421 0.742841 1.793378
v -0.050000 1.111140 1.662939
v -0.250000 0.999489 1.495841
v -0.191421 1.078439 1.613997
v -0.050000 1.414214 1.414214
v -0.250000 1.272108 1.272108
v -0.191421 1.372592 1.372592
v -0.050000 1.662939 1.111140
v -0.250000 1.495841 0.999489
v -0.191421 1.613997 1.078439
v -0.050000 1.847759 0.765367
v -0.250000 1.662089 0.688460
v -0.191421 1.793378 0.742841
v -0.050000 1.961571 0.390181
v -0.250000 1.764464 0.350974
v -0.191421 1.903839 0.378697
v -0.050000 2.000000 0.000000
v -0.250000 1.799032 0.000000
v -0.191421 1.941138 0.000000
v -0.050000 1.961571 -0.390181
v -0.250000 1.764464 -0.350974
v -0.191421 1.903839 -0.378697
v -0.050000 1.847759 -0.765367
v -0.250000 1.662089 -0.688460
v -0.191421 1.793378 -0.742841
v -0.050000 1.662939 -1.111140
v -0.250000 1.495841 -0.999489
v -0.191421 1.613997 -1.078439
v -0.050000 1.414214 -1.414214
v -0.250000 1.272108 -1.272108
v -0.191421 1.372592 -1.372592
v -0.050000 1.111140 -1.662939
v -0.250000 0.999489 -1.495841
v -0.191421 1.078439 -1.613997
v -0.050000 0.765367 -1.847759
v -0.250000 0.688460 -1.662089
v -0.191421 0.742841 -1.793378
v -0.050000 0.390181 -1.961571
v -0.250000 0.350974 -1.764464
v -0.191421 0.378697 -1.903839
vn -0.0000 -0.0980 -0.9952
vn -0.0000 -0.6344 -0.7730
vn -0.0000 -0.7730 -0.6344
vn -0.0000 -0.8819 -0.4714
vn -0.0000 -0.9569 -0.2903
vn -0.0000 -0.9952 -0.0980
vn -0.0000 -0.9952 0.0980
vn -0.0000 -0.9569 0.2903
vn -0.0000 -0.8819 0.4714
vn -0.0000 -0.7730 0.6344
vn -0.0000 -0.6344 0.7730
vn -0.0000 -0.4714 0.8819
vn -0.0000 -0.2903 0.9569
vn -0.0000 -0.0980 0.9952
vn -0.0000 0.0980 0.9952
vn -0.0000 0.2903 0.9569
vn -0.0000 0.4714 0.8819
vn -0.0000 0.6344 0.7730
vn -0.0000 0.7730 0.6344
vn -0.0000 0.8819 0.4714
vn -0.0000 0.9569 0.2903
vn -0.0000 0.9952 0.0980
vn -0.0000 0.9952 -0.0980
vn -0.0000 0.9569 -0.2903
vn -0.0000 0.8819 -0.4714
vn -0.0000 0.7730 -0.6344
vn -0.0000 0.6344 -0.7730
vn -0.0000 0.4714 -0.8819
vn -0.0000 0.2903 -0.9569
vn -0.0000 -0.2903 -0.9569
vn -0.0000 -0.4714 -0.8819
vn -0.0000 0.0980 -0.9952
vn 0.3827 -0.0906 -0.9194
vn 0.9239 -0.0375 -0.3808
vn 0.3827 -0.2682 -0.8841
vn 0.9239 -0.1111 -0.3662
vn 0.3827 -0.4355 -0.8148
vn 0.9239 -0.1804 -0.3375
vn 0.3827 -0.5861 -0.7142
vn 0.9239 -0.2428 -0.2958
vn 0.3827 -0.7142 -0.5861
vn 0.9239 -0.2958 -0.2428
vn 0.3827 -0.8148 -0.4355
vn 0.9239 -0.3375 -0.1804
vn 0.3827 -0.8841 -0.2682
vn 0.9239 -0.3662 -0.1111
vn 0.3827 -0.9194 -0.0906
vn 0.9239 -0.3808 -0.0375
vn 0.3827 -0.9194 0.0906
vn 0.9239 -0.3808 0.0375
vn 0.3827 -0.8841 0.2682
vn 0.9239 -0.3662 0.1111
vn 0.3827 -0.8148 0.4355
vn 0.9239 -0.3375 0.1804
vn 0.3827 -0.7142 0.5861
vn 0.9239 -0.2958 0.2428
vn 0.3827 -0.5861 0.7142
vn 0.9239 -0.2428 0.2958
vn 0.3827 -0.4355 0.8148
vn 0.9239 -0.1804 0.3375
vn 0.3827 -0.2682 0.8841
vn 0.9239 -0.1111 0.3662
vn 0.3827 -0.0906 0.9194
vn 0.9239 -0.0375 0.3808
vn 0.3827 0.0906 0.9194
vn 0.9239 0.0375 0.3808
vn 0.3827 0.2682 0.8841
vn 0.9239 0.1111 0.3662
vn 0.3827 0.4355 0.8148
vn 0.9239 0.1804 0.3375
vn 0.3827 0.5861 0.7142
vn 0.9239 0.2428 0.2958
vn 0.3827 0.7142 0.5861
vn 0.9239 0.2958 0.2428
vn 0.3827 0.8148 0.4355
vn 0.9239 0.3375 0.1804
vn 0.3827 0.8841 0.2682
vn 0.9239 0.3662 0.1111
vn 0.3827 0.9194 0.0906
vn 0.9239 0.3808 0.0375
vn 0.3827 0.9194 -0.0906
vn 0.9239 0.3808 -0.0375
vn 0.3827 0.8841 -0.2682
vn 0.9239 0.3662 -0.1111
vn 0.3827 0.8148 -0.4355
vn 0.9239 0.3375 -0.1804
vn 0.3827 0.7142 -0.5861
vn 0.9239 0.2958 -0.2428
vn 0.3827 0.5861 -0.7142
vn 0.9239 0.2428 -0.2958
vn 0.3827 0.4355 -0.8148
vn 0.9239 0.1804 -0.3375
vn 0.3827 0.2682 -0.8841
vn 0.9239 0.1111 -0.3662
vn 0.3827 0.0906 -0.9194
vn 0.9239 0.0375 -0.3808
vn 1.0000 -0.0000 -0.0000
vn -0.3827 -0.0906 -0.9194
vn -0.9239 -0.0375 -0.3808
vn -0.3827 -0.2682 -0.8841
vn -0.9239 -0.1111 -0.3662
vn -0.3827 -0.4355 -0.8148
vn -0.9239 -0.1804 -0.3375
vn -0.3827 -0.5861 -0.7142
vn -0.9239 -0.2428 -0.2958
vn -0.3827 -0.7142 -0.5861
vn -0.9239 -0.2958 -0.2428
vn -0.3827 -0.8148 -0.4355
vn -0.9239 -0.3375 -0.1804
vn -0.3827 -0.8841 -0.2682
vn -0.9239 -0.3662 -0.1111
vn -0.3827 -0.9194 -0.0906
vn -0.9239 -0.3808 -0.0375
vn -0.3827 -0.9194 0.0906
vn -0.9239 -0.3808 0.0375
vn -0.3827 -0.8841 0.2682
vn -0.9239 -0.3662 0.1111
vn -0.3827 -0.8148 0.4355
vn -0.9239 -0.3375 0.1804
vn -0.3827 -0.7142 0.5861
vn -0.9239 -0.2958 0.2428
vn -0.3827 -0.5861 0.7142
vn -0.9239 -0.2428 0.2958
vn -0.3827 -0.4355 0.8148
vn -0.9239 -0.1804 0.3375
vn -0.3827 -0.2682 0.8841
vn -0.9239 -0.1111 0.3662
vn -0.3827 -0.0906 0.9194
vn -0.9239 -0.0375 0.3808
vn -0.3827 0.0906 0.9194
vn -0.9239 0.0375 0.3808
vn -0.3827 0.2682 0.8841
vn -0.9239 0.1111 0.3662
vn -0.3827 0.4355 0.8148
vn -0.9239 0.1804 0.3375
vn -0.3827 0.5861 0.7142
vn -0.9239 0.2428 0.2958
vn -0.3827 0.7142 0.5861
vn -0.9239 0.2958 0.2428
vn -0.3827 0.8148 0.4355
vn -0.9239 0.3375 0.1804
vn -0.3827 0.8841 0.2682
vn -0.9239 0.3662 0.1111
vn -0.3827 0.9194 0.0906
vn -0.9239 0.3808 0.0375
vn -0.3827 0.9194 -0.0906
vn -0.9239 0.3808 -0.0375
vn -0.3827 0.8841 -0.2682
vn -0.9239 0.3662 -0.1111
vn -0.3827 0.8148 -0.4355
vn -0.9239 0.3375 -0.1804
vn -0.3827 0.7142 -0.5861
vn -0.9239 0.2958 -0.2428
vn -0.3827 0.5861 -0.7142
vn -0.9239 0.2428 -0.2958
vn -0.3827 0.4355 -0.8148
vn -0.9239 0.1804 -0.3375
vn -0.3827 0.2682 -0.8841
vn -0.9239 0.1111 -0.3662
vn -0.3827 0.0906 -0.9194
vn -0.9239 0.0375 -0.3808
vn -1.0000 -0.0000 -0.0000
vt 1.000000 0.700000
vt 1.000000 0.800000
vt 0.968750 0.800000
vt 0.968750 0.700000
vt 0.906250 0.700000
vt 0.906250 0.800000
vt 0.875000 0.800000
vt 0.875000 0.700000
vt 0.875000 0.700000
vt 0.843750 0.800000
vt 0.843750 0.700000
vt 0.812500 0.800000
vt 0.812500 0.700000
vt 0.781250 0.800000
vt 0.781250 0.700000
vt 0.750000 0.800000
vt 0.750000 0.700000
vt 0.718750 0.800000
vt 0.718750 0.700000
vt 0.687500 0.800000
vt 0.687500 0.700000
vt 0.656250 0.800000
vt 0.656250 0.700000
vt 0.656250 0.700000
vt 0.625000 0.800000
vt 0.625000 0.700000
vt 0.625000 0.700000
vt 0.593750 0.800000
vt 0.593750 0.700000
vt 0.562500 0.800000
vt 0.562500 0.700000
vt 0.531250 0.800000
vt 0.531250 0.700000
vt 0.500000 0.800000
vt 0.500000 0.700000
vt 0.468750 0.800000
vt 0.468750 0.700000
vt 0.437500 0.800000
vt 0.437500 0.700000
vt 0.406250 0.800000
vt 0.406250 0.700000
vt 0.406250 0.700000
vt 0.375000 0.800000
vt 0.375000 0.700000
vt 0.375000 0.700000
vt 0.343750 0.800000
vt 0.343750 0.700000
vt 0.312500 0.800000
vt 0.312500 0.700000
vt 0.281250 0.800000
vt 0.281250 0.700000
vt 0.250000 0.800000
vt 0.250000 0.700000
vt 0.218750 0.800000
vt 0.218750 0.700000
vt 0.187500 0.800000
vt 0.187500 0.700000
vt 0.156250 0.800000
vt 0.156250 0.700000
vt 0.156250 0.700000
vt 0.125000 0.800000
vt 0.125000 0.700000
vt 0.125000 0.700000
vt 0.093750 0.800000
vt 0.093750 0.700000
vt 0.062500 0.800000
vt 0.062500 0.700000
vt 0.031250 0.800000
vt 0.031250 0.700000
vt 0.937500 0.800000
vt 0.937500 0.700000
vt 0.906250 0.800000
vt 0.906250 0.700000
vt 0.000000 0.800000
vt 0.000000 0.700000
vt 0.999540 1.000000
vt 0.969210 1.000000
vt 0.296133 0.485456
vt 0.250689 0.489932
vt 0.250000 0.465884
vt 0.292117 0.461736
vt 0.968290 1.000000
vt 0.937960 1.000000
vt 0.341182 0.471932
vt 0.297484 0.485188
vt 0.332615 0.449451
vt 0.937040 1.000000
vt 0.906710 1.000000
vt 0.382726 0.449879
vt 0.342455 0.471405
vt 0.369939 0.429501
vt 0.905790 1.000000
vt 0.875460 1.000000
vt 0.419170 0.420145
vt 0.383872 0.449113
vt 0.402653 0.402653
vt 0.874540 1.000000
vt 0.844210 1.000000
vt 0.449113 0.383872
vt 0.420145 0.419170
vt 0.429501 0.369939
vt 0.843290 1.000000
vt 0.812960 1.000000
vt 0.471405 0.342455
vt 0.449879 0.382726
vt 0.449451 0.332615
vt 0.812040 1.000000
vt 0.781710 1.000000
vt 0.485187 0.297484
vt 0.471932 0.341181
vt 0.461736 0.292117
vt 0.780790 1.000000
vt 0.750460 1.000000
vt 0.489932 0.250689
vt 0.485456 0.296133
vt 0.465884 0.250000
vt 0.749540 1.000000
vt 0.719210 1.000000
vt 0.485456 0.203867
vt 0.489932 0.249311
vt 0.461736 0.207883
vt 0.718290 1.000000
vt 0.687960 1.000000
vt 0.471932 0.158818
vt 0.485188 0.202516
vt 0.449451 0.167385
vt 0.687040 1.000000
vt 0.656710 1.000000
vt 0.449879 0.117274
vt 0.471405 0.157545
vt 0.429501 0.130061
vt 0.655790 1.000000
vt 0.625460 1.000000
vt 0.420145 0.080830
vt 0.449113 0.116128
vt 0.402653 0.097347
vt 0.624540 1.000000
vt 0.594210 1.000000
vt 0.383872 0.050887
vt 0.419170 0.079855
vt 0.369939 0.070499
vt 0.593290 1.000000
vt 0.562960 1.000000
vt 0.342455 0.028595
vt 0.382726 0.050121
vt 0.332615 0.050549
vt 0.562040 1.000000
vt 0.531710 1.000000
vt 0.297484 0.014813
vt 0.341181 0.028068
vt 0.292117 0.038264
vt 0.530790 1.000000
vt 0.500460 1.000000
vt 0.250689 0.010068
vt 0.296133 0.014544
vt 0.250000 0.034116
vt 0.499540 1.000000
vt 0.469210 1.000000
vt 0.203867 0.014544
vt 0.249311 0.010068
vt 0.207883 0.038264
vt 0.468290 1.000000
vt 0.437960 1.000000
vt 0.158818 0.028068
vt 0.202516 0.014813
vt 0.167385 0.050549
vt 0.437040 1.000000
vt 0.406710 1.000000
vt 0.117274 0.050121
vt 0.157545 0.028595
vt 0.130061 0.070499
vt 0.405790 1.000000
vt 0.375460 1.000000
vt 0.080830 0.079855
vt 0.116128 0.050887
vt 0.097347 0.097347
vt 0.374540 1.000000
vt 0.344210 1.000000
vt 0.050887 0.116128
vt 0.079855 0.080830
vt 0.070499 0.130061
vt 0.343290 1.000000
vt 0.312960 1.000000
vt 0.028595 0.157545
vt 0.050121 0.117274
vt 0.050549 0.167385
vt 0.312040 1.000000
vt 0.281710 1.000000
vt 0.014813 0.202516
vt 0.028068 0.158818
vt 0.038264 0.207883
vt 0.280790 1.000000
vt 0.250460 1.000000
vt 0.010068 0.249311
vt 0.014544 0.203867
vt 0.034116 0.250000
vt 0.249540 1.000000
vt 0.219210 1.000000
vt 0.014544 0.296133
vt 0.010068 0.250689
vt 0.038264 0.292117
vt 0.218290 1.000000
vt 0.187960 1.000000
vt 0.028068 0.341182
vt 0.014813 0.297484
vt 0.050549 0.332615
vt 0.187040 1.000000
vt 0.156710 1.000000
vt 0.050121 0.382726
vt 0.028595 0.342455
vt 0.070499 0.369939
vt 0.155790 1.000000
vt 0.125460 1.000000
vt 0.079855 0.419170
vt 0.050887 0.383872
vt 0.097347 0.402653
vt 0.124540 1.000000
vt 0.094210 1.000000
vt 0.116128 0.449113
vt 0.080830 0.420145
vt 0.130061 0.429501
vt 0.093290 1.000000
vt 0.062960 1.000000
vt 0.157545 0.471405
vt 0.117274 0.449879
vt 0.167385 0.449451
vt 0.062040 1.000000
vt 0.031710 1.000000
vt 0.202516 0.485187
vt 0.158818 0.471932
vt 0.207883 0.461736
vt 0.030790 1.000000
vt 0.000460 1.000000
vt 0.249311 0.489932
vt 0.203867 0.485456
vt 0.969210 0.500000
vt 0.999540 0.500000
vt 0.750689 0.489932
vt 0.796133 0.485456
vt 0.792117 0.461736
vt 0.750000 0.465884
vt 0.937960 0.500000
vt 0.968290 0.500000
vt 0.797484 0.485187
vt 0.841182 0.471932
vt 0.832615 0.449451
vt 0.906710 0.500000
vt 0.937040 0.500000
vt 0.842455 0.471405
vt 0.882726 0.449879
vt 0.869939 0.429501
vt 0.875460 0.500000
vt 0.905790 0.500000
vt 0.883872 0.449113
vt 0.919170 0.420145
vt 0.902653 0.402653
vt 0.844210 0.500000
vt 0.874540 0.500000
vt 0.920145 0.419170
vt 0.949114 0.383872
vt 0.929501 0.369939
vt 0.812960 0.500000
vt 0.843290 0.500000
vt 0.949879 0.382726
vt 0.971405 0.342455
vt 0.949451 0.332615
vt 0.781710 0.500000
vt 0.812040 0.500000
vt 0.971932 0.341182
vt 0.985187 0.297484
vt 0.961736 0.292117
vt 0.750460 0.500000
vt 0.780790 0.500000
vt 0.985456 0.296133
vt 0.989932 0.250689
vt 0.965884 0.250000
vt 0.719210 0.500000
vt 0.749540 0.500000
vt 0.989932 0.249311
vt 0.985456 0.203867
vt 0.961736 0.207883
vt 0.687960 0.500000
vt 0.718290 0.500000
vt 0.985187 0.202516
vt 0.971932 0.158818
vt 0.949451 0.167385
vt 0.656710 0.500000
vt 0.687040 0.500000
vt 0.971405 0.157545
vt 0.949879 0.117274
vt 0.929501 0.130061
vt 0.625460 0.500000
vt 0.655790 0.500000
vt 0.949113 0.116128
vt 0.920145 0.080830
vt 0.902653 0.097347
vt 0.594210 0.500000
vt 0.624540 0.500000
vt 0.919170 0.079855
vt 0.883872 0.050887
vt 0.869939 0.070499
vt 0.562960 0.500000
vt 0.593290 0.500000
vt 0.882726 0.050121
vt 0.842455 0.028595
vt 0.832615 0.050549
vt 0.531710 0.500000
vt 0.562040 0.500000
vt 0.841182 0.028068
vt 0.797484 0.014813
vt 0.792117 0.038264
vt 0.500460 0.500000
vt 0.530790 0.500000
vt 0.796133 0.014544
vt 0.750689 0.010068
vt 0.750000 0.034116
vt 0.469210 0.500000
vt 0.499540 0.500000
vt 0.749311 0.010068
vt 0.703867 0.014544
vt 0.707883 0.038264
vt 0.437960 0.500000
vt 0.468290 0.500000
vt 0.702516 0.014813
vt 0.658818 0.028068
vt 0.667385 0.050549
vt 0.406710 0.500000
vt 0.437040 0.500000
vt 0.657545 0.028595
vt 0.617274 0.050121
vt 0.630061 0.070499
vt 0.375460 0.500000
vt 0.405790 0.500000
vt 0.616128 0.050887
vt 0.580830 0.079855
vt 0.597347 0.097347
vt 0.344210 0.500000
vt 0.374540 0.500000
vt 0.579855 0.080830
vt 0.550886 0.116128
vt 0.570499 0.130061
vt 0.312960 0.500000
vt 0.343290 0.500000
vt 0.550121 0.117274
vt 0.528595 0.157545
vt 0.550549 0.167385
vt 0.281710 0.500000
vt 0.312040 0.500000
vt 0.528068 0.158818
vt 0.514813 0.202516
vt 0.538264 0.207883
vt 0.250460 0.500000
vt 0.280790 0.500000
vt 0.514544 0.203867
vt 0.510068 0.249311
vt 0.534116 0.250000
vt 0.219210 0.500000
vt 0.249540 0.500000
vt 0.510068 0.250689
vt 0.514544 0.296133
vt 0.538264 0.292117
vt 0.187960 0.500000
vt 0.218290 0.500000
vt 0.514812 0.297484
vt 0.528068 0.341181
vt 0.550549 0.332615
vt 0.156710 0.500000
vt 0.187040 0.500000
vt 0.528595 0.342455
vt 0.550121 0.382726
vt 0.570499 0.369939
vt 0.125460 0.500000
vt 0.155790 0.500000
vt 0.550886 0.383872
vt 0.579855 0.419170
vt 0.597347 0.402653
vt 0.094210 0.500000
vt 0.124540 0.500000
vt 0.580830 0.420145
vt 0.616128 0.449113
vt 0.630061 0.429501
vt 0.062960 0.500000
vt 0.093290 0.500000
vt 0.617274 0.449879
vt 0.657545 0.471405
vt 0.667385 0.449451
vt 0.031710 0.500000
vt 0.062040 0.500000
vt 0.658818 0.471932
vt 0.702516 0.485188
vt 0.707883 0.461736
vt 0.000460 0.500000
vt 0.030790 0.500000
vt 0.703867 0.485456
vt 0.749311 0.489932
s 0
f 98/1/1 2/2/1 5/3/1 100/4/1
f 106/5/2 11/6/2 14/7/2 109/8/2
f 109/9/3 14/7/3 17/10/3 112/11/3
f 112/11/4 17/10/4 20/12/4 115/13/4
f 115/13/5 20/12/5 23/14/5 118/15/5
f 118/15/6 23/14/6 26/16/6 121/17/6
f 121/17/7 26/16/7 29/18/7 124/19/7
f 124/19/8 29/18/8 32/20/8 127/21/8
f 127/21/9 32/20/9 35/22/9 130/23/9
f 130/24/10 35/22/10 38/25/10 133/26/10
f 133/27/11 38/25/11 41/28/11 136/29/11
f 136/29/12 41/28/12 44/30/12 139/31/12
f 139/31/13 44/30/13 47/32/13 142/33/13
f 142/33/14 47/32/14 50/34/14 145/35/14
f 145/35/15 50/34/15 53/36/15 148/37/15
f 148/37/16 53/36/16 56/38/16 151/39/16
f 151/39/17 56/38/17 59/40/17 154/41/17
f 154/42/18 59/40/18 62/43/18 157/44/18
f 157/45/19 62/43/19 65/46/19 160/47/19
f 160/47/20 65/46/20 68/48/20 163/49/20
f 163/49/21 68/48/21 71/50/21 166/51/21
f 166/51/22 71/50/22 74/52/22 169/53/22
f 169/53/23 74/52/23 77/54/23 172/55/23
f 172/55/24 77/54/24 80/56/24 175/57/24
f 175/57/25 80/56/25 83/58/25 178/59/25
f 178/60/26 83/58/26 86/61/26 181/62/26
f 181/63/27 86/61/27 89/64/27 184/65/27
f 184/65/28 89/64/28 92/66/28 187/67/28
f 187/67/29 92/66/29 95/68/29 190/69/29
f 100/4/30 5/3/30 8/70/30 103/71/30
f 103/71/31 8/70/31 11/72/31 106/73/31
f 190/69/32 95/68/32 2/74/32 98/75/32
f 5/3/33 2/2/33 3/76/33 6/77/33
f 6/78/34 3/79/34 1/80/34 4/81/34
f 8/70/35 5/3/35 6/82/35 9/83/35
f 9/84/36 6/85/36 4/81/36 7/86/36
f 11/72/37 8/70/37 9/87/37 12/88/37
f 12/89/38 9/90/38 7/86/38 10/91/38
f 14/7/39 11/6/39 12/92/39 15/93/39
f 15/94/40 12/95/40 10/91/40 13/96/40
f 17/10/41 14/7/41 15/97/41 18/98/41
f 18/99/42 15/100/42 13/96/42 16/101/42
f 20/12/43 17/10/43 18/102/43 21/103/43
f 21/104/44 18/105/44 16/101/44 19/106/44
f 23/14/45 20/12/45 21/107/45 24/108/45
f 24/109/46 21/110/46 19/106/46 22/111/46
f 26/16/47 23/14/47 24/112/47 27/113/47
f 27/114/48 24/115/48 22/111/48 25/116/48
f 29/18/49 26/16/49 27/117/49 30/118/49
f 30/119/50 27/120/50 25/116/50 28/121/50
f 32/20/51 29/18/51 30/122/51 33/123/51
f 33/124/52 30/125/52 28/121/52 31/126/52
f 35/22/53 32/20/53 33/127/53 36/128/53
f 36/129/54 33/130/54 31/126/54 34/131/54
f 38/25/55 35/22/55 36/132/55 39/133/55
f 39/134/56 36/135/56 34/131/56 37/136/56
f 41/28/57 38/25/57 39/137/57 42/138/57
f 42/139/58 39/140/58 37/136/58 40/141/58
f 44/30/59 41/28/59 42/142/59 45/143/59
f 45/144/60 42/145/60 40/141/60 43/146/60
f 47/32/61 44/30/61 45/147/61 48/148/61
f 48/149/62 45/150/62 43/146/62 46/151/62
f 50/34/63 47/32/63 48/152/63 51/153/63
f 51/154/64 48/155/64 46/151/64 49/156/64
f 53/36/65 50/34/65 51/157/65 54/158/65
f 54/159/66 51/160/66 49/156/66 52/161/66
f 56/38/67 53/36/67 54/162/67 57/163/67
f 57/164/68 54/165/68 52/161/68 55/166/68
f 59/40/69 56/38/69 57/167/69 60/168/69
f 60/169/70 57/170/70 55/166/70 58/171/70
f 62/43/71 59/40/71 60/172/71 63/173/71
f 63/174/72 60/175/72 58/171/72 61/176/72
f 65/46/73 62/43/73 63/177/73 66/178/73
f 66/179/74 63/180/74 61/176/74 64/181/74
f 68/48/75 65/46/75 66/182/75 69/183/75
f 69/184/76 66/185/76 64/181/76 67/186/76
f 71/50/77 68/48/77 69/187/77 72/188/77
f 72/189/78 69/190/78 67/186/78 70/191/78
f 74/52/79 71/50/79 72/192/79 75/193/79
f 75/194/80 72/195/80 70/191/80 73/196/80
f 77/54/81 74/52/81 75/197/81 78/198/81
f 78/199/82 75/200/82 73/196/82 76/201/82
f 80/56/83 77/54/83 78/202/83 81/203/83
f 81/204/84 78/205/84 76/201/84 79/206/84
f 83/58/85 80/56/85 81/207/85 84/208/85
f 84/209/86 81/210/86 79/206/86 82/211/86
f 86/61/87 83/58/87 84/212/87 87/213/87
f 87/214/88 84/215/88 82/211/88 85/216/88
f 89/64/89 86/61/89 87/217/89 90/218/89
f 90/219/90 87/220/90 85/216/90 88/221/90
f 92/66/91 89/64/91 90/222/91 93/223/91
f 93/224/92 90/225/92 88/221/92 91/226/92
f 95/68/93 92/66/93 93/227/93 96/228/93
f 96/229/94 93/230/94 91/226/94 94/231/94
f 2/74/95 95/68/95 96/232/95 3/233/95
f 3/234/96 96/235/96 94/231/96 1/80/96
f 4/81/97 1/80/97 94/231/97 91/226/97 88/221/97 85/216/97 82/211/97 79/206/97 76/201/97 73/196/97 70/191/97 67/186/97 64/181/97 61/176/97 58/171/97 55/166/97 52/161/97 49/156/97 46/151/97 43/146/97 40/141/97 37/136/97 34/131/97 31/126/97 28/121/97 25/116/97 22/111/97 19/106/97 16/101/97 13/96/97 10/91/97 7/86/97
f 98/1/98 100/4/98 102/236/98 99/237/98
f 99/238/99 102/239/99 101/240/99 97/241/99
f 100/4/100 103/71/100 105/242/100 102/243/100
f 102/244/101 105/245/101 104/246/101 101/240/101
f 103/71/102 106/73/102 108/247/102 105/248/102
f 105/249/103 108/250/103 107/251/103 104/246/103
f 106/5/104 109/8/104 111/252/104 108/253/104
f 108/254/105 111/255/105 110/256/105 107/251/105
f 109/9/106 112/11/106 114/257/106 111/258/106
f 111/259/107 114/260/107 113/261/107 110/256/107
f 112/11/108 115/13/108 117/262/108 114/263/108
f 114/264/109 117/265/109 116/266/109 113/261/109
f 115/13/110 118/15/110 120/267/110 117/268/110
f 117/269/111 120/270/111 119/271/111 116/266/111
f 118/15/112 121/17/112 123/272/112 120/273/112
f 120/274/113 123/275/113 122/276/113 119/271/113
f 121/17/114 124/19/114 126/277/114 123/278/114
f 123/279/115 126/280/115 125/281/115 122/276/115
f 124/19/116 127/21/116 129/282/116 126/283/116
f 126/284/117 129/285/117 128/286/117 125/281/117
f 127/21/118 130/23/118 132/287/118 129/288/118
f 129/289/119 132/290/119 131/291/119 128/286/119
f 130/24/120 133/26/120 135/292/120 132/293/120
f 132/294/121 135/295/121 134/296/121 131/291/121
f 133/27/122 136/29/122 138/297/122 135/298/122
f 135/299/123 138/300/123 137/301/123 134/296/123
f 136/29/124 139/31/124 141/302/124 138/303/124
f 138/304/125 141/305/125 140/306/125 137/301/125
f 139/31/126 142/33/126 144/307/126 141/308/126
f 141/309/127 144/310/127 143/311/127 140/306/127
f 142/33/128 145/35/128 147/312/128 144/313/128
f 144/314/129 147/315/129 146/316/129 143/311/129
f 145/35/130 148/37/130 150/317/130 147/318/130
f 147/319/131 150/320/131 149/321/131 146/316/131
f 148/37/132 151/39/132 153/322/132 150/323/132
f 150/324/133 153/325/133 152/326/133 149/321/133
f 151/39/134 154/41/134 156/327/134 153/328/134
f 153/329/135 156/330/135 155/331/135 152/326/135
f 154/42/136 157/44/136 159/332/136 156/333/136
f 156/334/137 159/335/137 158/336/137 155/331/137
f 157/45/138 160/47/138 162/337/138 159/338/138
f 159/339/139 162/340/139 161/341/139 158/336/139
f 160/47/140 163/49/140 165/342/140 162/343/140
f 162/344/141 165/345/141 164/346/141 161/341/141
f 163/49/142 166/51/142 168/347/142 165/348/142
f 165/349/143 168/350/143 167/351/143 164/346/143
f 166/51/144 169/53/144 171/352/144 168/353/144
f 168/354/145 171/355/145 170/356/145 167/351/145
f 169/53/146 172/55/146 174/357/146 171/358/146
f 171/359/147 174/360/147 173/361/147 170/356/147
f 172/55/148 175/57/148 177/362/148 174/363/148
f 174/364/149 177/365/149 176/366/149 173/361/149
f 175/57/150 178/59/150 180/367/150 177/368/150
f 177/369/151 180/370/151 179/371/151 176/366/151
f 178/60/152 181/62/152 183/372/152 180/373/152
f 180/374/153 183/375/153 182/376/153 179/371/153
f 181/63/154 184/65/154 186/377/154 183/378/154
f 183/379/155 186/380/155 185/381/155 182/376/155
f 184/65/156 187/67/156 189/382/156 186/383/156
f 186/384/157 189/385/157 188/386/157 185/381/157
f 187/67/158 190/69/158 192/387/158 189/388/158
f 189/389/159 192/390/159 191/391/159 188/386/159
f 190/69/160 98/75/160 99/392/160 192/393/160
f 192/394/161 99/395/161 97/241/161 191/391/161
f 97/241/162 101/240/162 104/246/162 107/251/162 110/256/162 113/261/162 116/266/162 119/271/162 122/276/162 125/281/162 128/286/162 131/291/162 134/296/162 137/301/162 140/306/162 143/311/162 146/316/162 149/321/162 152/326/162 155/331/162 158/336/162 161/341/162 164/346/162 167/351/162 170/356/162 173/361/162 176/366/162 179/371/162 182/376/162 185/381/162 188/386/162 191/391/162
