# Blender 4.3.2
# www.blender.org
mtllib compass needle.mtl
o Cube
v 0.400000 -0.614214 0.000000
v 0.400000 0.000000 0.614214
v 0.400000 0.000000 -0.614214
v 0.400000 1.414214 0.000000
v 0.000000 0.000000 -0.564214
v 0.000000 1.364214 0.000000
v 0.000000 -0.564214 0.000000
v 0.000000 0.000000 0.564214
v 0.650000 0.000000 0.000000
vn -0.0817 0.3892 -0.9175
vn 1.0000 -0.0000 -0.0000
vn -0.0880 -0.7044 -0.7044
vn -1.0000 -0.0000 -0.0000
vn -0.0817 0.3892 0.9175
vn -0.0880 -0.7044 0.7044
vn 0.9140 0.1616 -0.3720
vn 0.8667 -0.3528 -0.3528
vn 0.8667 -0.3528 0.3528
vn 0.9140 0.1616 0.3720
vt 0.375000 0.375000
vt 0.625000 0.375000
vt 0.625000 0.500000
vt 0.375000 0.500000
vt 0.625000 0.750000
vt 0.375000 0.750000
vt 0.250000 0.500000
vt 0.250000 0.750000
vt 0.000000 0.000000
vt 0.750000 0.500000
vt 0.750000 0.750000
vt 0.625000 0.875000
vt 0.375000 0.875000
s 0
f 5/1/1 6/2/1 4/3/1 3/4/1
f 3/4/2 4/3/2 2/5/2 1/6/2
f 5/7/3 3/4/3 1/6/3 7/8/3
f 8/9/4 6/9/4 5/9/4
f 4/3/5 6/10/5 8/11/5 2/5/5
f 1/6/6 2/5/6 8/12/6 7/13/6
f 8/9/4 5/9/4 7/9/4
f 9/9/7 3/9/7 4/9/7
f 9/9/8 1/9/8 3/9/8
f 2/9/9 1/9/9 9/9/9
f 4/9/10 2/9/10 9/9/10
