# Blender 4.3.2
# www.blender.org
mtllib cover.mtl
o Icosphere.001
v 0.276388 0.447220 0.850649
v -0.723607 0.447220 0.525725
v -0.723607 0.447220 -0.525725
v 0.276388 0.447220 -0.850649
v 0.894426 0.447216 0.000000
v 0.000000 1.000000 0.000000
v 0.951058 0.000000 0.309013
v 0.248749 0.402498 0.765584
v 0.951058 0.000000 -0.309013
v -0.651247 0.402498 0.473153
v 0.000000 0.000000 1.000000
v -0.651247 0.402498 -0.473153
v 0.587786 0.000000 0.809017
v 0.248749 0.402498 -0.765584
v -0.951058 0.000000 0.309013
v 0.804984 0.402494 0.000000
v -0.587786 0.000000 0.809017
v 0.000000 0.900000 0.000000
v -0.587786 0.000000 -0.809017
v -0.951058 0.000000 -0.309013
v 0.587786 0.000000 -0.809017
v 0.000000 0.000000 -1.000000
v 0.688189 0.525736 0.499997
v -0.262869 0.525738 0.809012
v -0.850648 0.525736 0.000000
v -0.262869 0.525738 -0.809012
v 0.688189 0.525736 -0.499997
v 0.162456 0.850654 0.499995
v 0.525730 0.850652 0.000000
v 0.855952 0.000000 0.278111
v -0.425323 0.850654 0.309011
v 0.855952 0.000000 -0.278111
v 0.000000 0.000000 0.900000
v -0.425323 0.850654 -0.309011
v 0.162456 0.850654 -0.499995
v 0.529007 0.000000 0.728115
v -0.855952 0.000000 0.278111
v -0.529007 0.000000 0.728115
v -0.529007 0.000000 -0.728115
v -0.855952 0.000000 -0.278111
v 0.529007 0.000000 -0.728115
v 0.000000 0.000000 -0.900000
v 0.619370 0.473163 0.449997
v -0.236582 0.473164 0.728110
v -0.765583 0.473162 0.000000
v -0.236582 0.473164 -0.728110
v 0.619370 0.473163 -0.449997
v 0.146210 0.765589 0.449996
v 0.473157 0.765586 0.000000
v -0.382790 0.765589 0.278110
v -0.382790 0.765589 -0.278110
v 0.146210 0.765589 -0.449996
vn 0.4089 0.6617 0.6284
vn -0.4713 0.6617 0.5831
vn -0.7002 0.6617 -0.2680
vn 0.0385 0.6617 -0.7488
vn 0.7240 0.6617 -0.1947
vn 0.2680 0.9435 -0.1947
vn 0.4911 0.7947 -0.3568
vn 0.4089 0.6617 -0.6284
vn -0.1024 0.9435 -0.3151
vn -0.1876 0.7947 -0.5773
vn -0.4713 0.6617 -0.5831
vn -0.3313 0.9435 -0.0000
vn -0.6071 0.7947 -0.0000
vn -0.7002 0.6617 0.2680
vn -0.1024 0.9435 0.3151
vn -0.1876 0.7947 0.5773
vn 0.0385 0.6617 0.7488
vn 0.2680 0.9435 0.1947
vn 0.4911 0.7947 0.3568
vn 0.7240 0.6617 0.1947
vn 0.8897 0.3304 -0.3151
vn 0.7947 0.1876 -0.5773
vn 0.5746 0.3304 -0.7488
vn -0.0247 0.3304 -0.9435
vn -0.3035 0.1876 -0.9342
vn -0.5346 0.3304 -0.7779
vn -0.9050 0.3304 -0.2680
vn -0.9822 0.1876 -0.0000
vn -0.9050 0.3304 0.2680
vn -0.5346 0.3304 0.7779
vn -0.3035 0.1876 0.9342
vn -0.0247 0.3304 0.9435
vn 0.5746 0.3304 0.7488
vn 0.7947 0.1876 0.5773
vn 0.8897 0.3304 0.3151
vn 0.3066 0.1256 -0.9435
vn -0.8026 0.1256 -0.5831
vn -0.8026 0.1256 0.5831
vn 0.3066 0.1256 0.9435
vn 0.9921 0.1256 -0.0000
vn -0.0000 -1.0000 -0.0000
vn -0.4089 -0.6617 -0.6284
vn 0.4713 -0.6617 -0.5831
vn 0.7002 -0.6617 0.2680
vn -0.0385 -0.6617 0.7488
vn -0.7240 -0.6617 0.1947
vn -0.2680 -0.9435 0.1947
vn -0.4911 -0.7947 0.3568
vn -0.4089 -0.6617 0.6284
vn 0.1024 -0.9435 0.3151
vn 0.1876 -0.7947 0.5773
vn 0.4713 -0.6617 0.5831
vn 0.3313 -0.9435 -0.0000
vn 0.6071 -0.7947 -0.0000
vn 0.7002 -0.6617 -0.2680
vn 0.1024 -0.9435 -0.3151
vn 0.1876 -0.7947 -0.5773
vn -0.0385 -0.6617 -0.7488
vn -0.2680 -0.9435 -0.1947
vn -0.4911 -0.7947 -0.3568
vn -0.7240 -0.6617 -0.1947
vn -0.8897 -0.3304 0.3151
vn -0.7947 -0.1876 0.5773
vn -0.5746 -0.3304 0.7488
vn 0.0247 -0.3304 0.9435
vn 0.3035 -0.1876 0.9342
vn 0.5346 -0.3304 0.7779
vn 0.9050 -0.3304 0.2680
vn 0.9822 -0.1876 -0.0000
vn 0.9050 -0.3304 -0.2680
vn 0.5346 -0.3304 -0.7779
vn 0.3035 -0.1876 -0.9342
vn 0.0247 -0.3304 -0.9435
vn -0.5746 -0.3304 -0.7488
vn -0.7947 -0.1876 -0.5773
vn -0.8897 -0.3304 -0.3151
vn -0.3066 -0.1256 0.9435
vn 0.8026 -0.1256 0.5831
vn 0.8026 -0.1256 -0.5831
vn -0.3066 -0.1256 -0.9435
vn -0.9921 -0.1256 -0.0000
vt 0.227273 0.393651
vt 0.181819 0.314921
vt 0.272728 0.314921
vt 0.045455 0.393651
vt 0.000000 0.314921
vt 0.090910 0.314921
vt 0.772727 0.393651
vt 0.727273 0.314921
vt 0.818182 0.314921
vt 0.590909 0.393651
vt 0.545455 0.314921
vt 0.636364 0.314921
vt 0.409092 0.393651
vt 0.363637 0.314921
vt 0.454546 0.314921
vt 0.500000 0.393651
vt 0.454546 0.472382
vt 0.681818 0.393651
vt 0.636364 0.472382
vt 0.863636 0.393651
vt 0.818182 0.472382
vt 0.909091 0.314921
vt 0.090910 0.472382
vt 0.136365 0.393651
vt 0.272728 0.472382
vt 0.318182 0.393651
vt 0.409092 0.236191
vt 0.500000 0.236191
vt 0.590909 0.236191
vt 0.681818 0.236191
vt 0.772727 0.236191
vt 0.863636 0.236191
vt 0.045455 0.236191
vt 0.136365 0.236191
vt 0.227273 0.236191
vt 0.318182 0.236191
vt 0.954545 0.236191
vt 0.811228 0.540727
vt 0.750000 0.520833
vt 0.688772 0.540727
vt 0.694895 0.549155
vt 0.750000 0.531250
vt 0.805105 0.549155
vt 0.650931 0.592811
vt 0.650931 0.657189
vt 0.688772 0.709273
vt 0.750000 0.729167
vt 0.811228 0.709273
vt 0.849068 0.657189
vt 0.849069 0.592811
vt 0.839162 0.596030
vt 0.839162 0.653970
vt 0.805105 0.700845
vt 0.750000 0.718750
vt 0.694895 0.700845
vt 0.660838 0.653970
vt 0.660838 0.596030
s 0
f 28/1/1 1/2/1 23/3/1
f 31/4/2 2/5/2 24/6/2
f 34/7/3 3/8/3 25/9/3
f 35/10/4 4/11/4 26/12/4
f 29/13/5 5/14/5 27/15/5
f 35/16/6 6/17/6 29/13/6
f 35/16/7 29/13/7 27/15/7
f 4/11/8 35/16/8 27/15/8
f 34/18/9 6/19/9 35/10/9
f 26/12/10 34/18/10 35/10/10
f 3/8/11 34/18/11 26/12/11
f 34/7/12 31/20/12 6/21/12
f 25/9/13 31/20/13 34/7/13
f 31/20/14 25/9/14 2/22/14
f 6/23/15 31/4/15 28/24/15
f 31/4/16 24/6/16 28/24/16
f 28/24/17 24/6/17 1/2/17
f 6/25/18 28/1/18 29/26/18
f 29/26/19 28/1/19 23/3/19
f 23/3/20 5/14/20 29/26/20
f 5/14/21 9/27/21 27/15/21
f 27/15/22 9/27/22 21/28/22
f 4/11/23 27/15/23 21/28/23
f 26/12/24 4/11/24 22/29/24
f 26/12/25 22/29/25 19/30/25
f 3/8/26 26/12/26 19/30/26
f 25/9/27 3/8/27 20/31/27
f 25/9/28 20/31/28 15/32/28
f 2/22/29 25/9/29 15/32/29
f 2/5/30 17/33/30 24/6/30
f 24/6/31 17/33/31 11/34/31
f 24/6/32 11/34/32 1/2/32
f 1/2/33 13/35/33 23/3/33
f 23/3/34 13/35/34 7/36/34
f 23/3/35 7/36/35 5/14/35
f 4/11/36 21/28/36 22/29/36
f 3/8/37 19/30/37 20/31/37
f 2/22/38 15/32/38 17/37/38
f 1/2/39 11/34/39 13/35/39
f 5/14/40 7/36/40 9/27/40
f 19/38/41 22/39/41 21/40/41 41/41/41 42/42/41 39/43/41
f 41/41/41 21/40/41 9/44/41 7/45/41 13/46/41 11/47/41 17/48/41 15/49/41 20/50/41 19/38/41 39/43/41 40/51/41 37/52/41 38/53/41 33/54/41 36/55/41 30/56/41 32/57/41
f 48/1/42 43/3/42 8/2/42
f 50/4/43 44/6/43 10/5/43
f 51/7/44 45/9/44 12/8/44
f 52/10/45 46/12/45 14/11/45
f 49/13/46 47/15/46 16/14/46
f 52/16/47 49/13/47 18/17/47
f 52/16/48 47/15/48 49/13/48
f 14/11/49 47/15/49 52/16/49
f 51/18/50 52/10/50 18/19/50
f 46/12/51 52/10/51 51/18/51
f 12/8/52 46/12/52 51/18/52
f 51/7/53 18/21/53 50/20/53
f 45/9/54 51/7/54 50/20/54
f 50/20/55 10/22/55 45/9/55
f 18/23/56 48/24/56 50/4/56
f 50/4/57 48/24/57 44/6/57
f 48/24/58 8/2/58 44/6/58
f 18/25/59 49/26/59 48/1/59
f 49/26/60 43/3/60 48/1/60
f 43/3/61 49/26/61 16/14/61
f 16/14/62 47/15/62 32/27/62
f 47/15/63 41/28/63 32/27/63
f 14/11/64 41/28/64 47/15/64
f 46/12/65 42/29/65 14/11/65
f 42/29/66 46/12/66 39/30/66
f 12/8/67 39/30/67 46/12/67
f 45/9/68 40/31/68 12/8/68
f 40/31/69 45/9/69 37/32/69
f 10/22/70 37/32/70 45/9/70
f 10/5/71 44/6/71 38/33/71
f 38/33/72 44/6/72 33/34/72
f 44/6/73 8/2/73 33/34/73
f 8/2/74 43/3/74 36/35/74
f 36/35/75 43/3/75 30/36/75
f 43/3/76 16/14/76 30/36/76
f 41/28/77 14/11/77 42/29/77
f 39/30/78 12/8/78 40/31/78
f 37/32/79 10/22/79 38/37/79
f 33/34/80 8/2/80 36/35/80
f 30/36/81 16/14/81 32/27/81
