# Blender 4.3.2
# www.blender.org
mtllib gear.mtl
o Cylinder
v -2.375241 -0.300000 0.456324
v 0.000000 -0.300000 -2.000000
v -1.652384 -0.300000 1.766247
v -2.189831 -0.300000 -1.026958
v -1.167979 -0.300000 -2.117976
v -0.300000 -0.300000 2.400000
v -2.375241 0.300000 0.456324
v -0.300000 0.300000 2.400000
v -1.167979 0.300000 -2.117976
v 0.000000 0.300000 -2.000000
v -1.652384 0.300000 1.766247
v -2.189831 0.300000 -1.026958
v -0.300000 -0.300000 -2.400000
v 2.189831 -0.300000 -1.026958
v 0.390181 -0.300000 -1.961571
v 1.653390 -0.300000 1.765305
v 1.166773 -0.300000 -2.118641
v 2.375241 -0.300000 0.456324
v 2.189831 0.300000 -1.026958
v 0.390181 0.300000 -1.961571
v 1.653390 0.300000 1.765305
v 2.375241 0.300000 0.456324
v 1.166773 0.300000 -2.118641
v -0.300000 0.300000 -2.400000
v -2.189831 -0.300000 1.026958
v -1.166773 -0.300000 2.118641
v -2.375241 -0.300000 -0.456324
v 0.765367 -0.300000 -1.847759
v -1.653390 -0.300000 -1.765305
v 0.300000 -0.300000 2.400000
v 0.765367 0.300000 -1.847759
v -2.189831 0.300000 1.026958
v -1.166773 0.300000 2.118641
v -1.653390 0.300000 -1.765305
v 0.300000 0.300000 2.400000
v -2.375241 0.300000 -0.456324
v 1.167979 -0.300000 2.117976
v 2.189831 -0.300000 1.026958
v 2.375241 -0.300000 -0.456324
v 0.300000 -0.300000 -2.400000
v 1.652384 -0.300000 -1.766247
v 1.111140 -0.300000 -1.662939
v 0.300000 0.300000 -2.400000
v 1.652384 0.300000 -1.766247
v 2.189831 0.300000 1.026958
v 2.375241 0.300000 -0.456324
v 1.111140 0.300000 -1.662939
v 1.167979 0.300000 2.117976
v 1.414214 -0.300000 -1.414214
v 1.414214 0.300000 -1.414214
v 1.662939 -0.300000 -1.111140
v 1.662939 0.300000 -1.111140
v 1.847759 -0.300000 -0.765367
v 1.847759 0.300000 -0.765367
v 1.961571 -0.300000 -0.390181
v 1.961571 0.300000 -0.390181
v 2.000000 -0.300000 0.000000
v 2.000000 0.300000 0.000000
v 1.961571 -0.300000 0.390181
v 1.961571 0.300000 0.390181
v 1.847759 -0.300000 0.765367
v 1.847759 0.300000 0.765367
v 1.662939 -0.300000 1.111140
v 1.662939 0.300000 1.111140
v 1.414214 -0.300000 1.414214
v 1.414214 0.300000 1.414214
v 1.111140 -0.300000 1.662939
v 1.111140 0.300000 1.662939
v 0.765367 -0.300000 1.847759
v 0.765367 0.300000 1.847759
v 0.390181 -0.300000 1.961571
v 0.390181 0.300000 1.961571
v 0.000000 -0.300000 2.000000
v 0.000000 0.300000 2.000000
v -0.390181 -0.300000 1.961571
v -0.390181 0.300000 1.961571
v -0.765367 -0.300000 1.847759
v -0.765367 0.300000 1.847759
v -1.111140 -0.300000 1.662939
v -1.111140 0.300000 1.662939
v -1.414214 -0.300000 1.414214
v -1.414214 0.300000 1.414214
v -1.662939 -0.300000 1.111140
v -1.662939 0.300000 1.111140
v -1.847759 -0.300000 0.765367
v -1.847759 0.300000 0.765367
v -1.961571 -0.300000 0.390181
v -1.961571 0.300000 0.390181
v -2.000000 -0.300000 0.000000
v -2.000000 0.300000 0.000000
v -1.961571 -0.300000 -0.390181
v -1.961571 0.300000 -0.390181
v -1.847759 -0.300000 -0.765367
v -1.847759 0.300000 -0.765367
v -1.662939 -0.300000 -1.111140
v -1.662939 0.300000 -1.111140
v -1.414214 -0.300000 -1.414214
v -1.414214 0.300000 -1.414214
v -1.111140 -0.300000 -1.662939
v -1.111140 0.300000 -1.662939
v -0.765367 -0.300000 -1.847759
v -0.765367 0.300000 -1.847759
v -0.390181 -0.300000 -1.961571
v -0.390181 0.300000 -1.961571
v 0.300000 0.300000 -1.970453
v 0.246960 0.300000 -1.975677
v 0.300000 -0.300000 -1.970453
v 0.912955 0.300000 -1.768872
v 0.912955 -0.300000 -1.768872
v 0.960232 -0.300000 -1.743601
v 1.403377 0.300000 -1.423107
v 1.362641 0.300000 -1.456538
v 1.403377 -0.300000 -1.423107
v 1.779244 0.300000 -0.893550
v 1.779244 -0.300000 -0.893550
v 1.804521 -0.300000 -0.846260
v 1.968086 0.300000 -0.324031
v 1.962859 0.300000 -0.377098
v 1.968086 -0.300000 -0.324031
v 1.968086 0.300000 0.324031
v 1.968086 -0.300000 0.324031
v 1.962859 -0.300000 0.377099
v 1.779244 0.300000 0.893550
v 1.804521 0.300000 0.846260
v 1.779244 -0.300000 0.893550
v 1.404248 0.300000 1.422392
v 1.404248 -0.300000 1.422392
v 1.363521 -0.300000 1.455816
v 0.913952 0.300000 1.768338
v 0.961232 0.300000 1.743067
v 0.913952 -0.300000 1.768338
v 0.300000 0.300000 1.970453
v 0.300000 -0.300000 1.970453
v 0.246960 -0.300000 1.975677
v -0.300000 0.300000 1.970453
v -0.246960 0.300000 1.975677
v -0.300000 -0.300000 1.970453
v -0.912955 0.300000 1.768872
v -0.912955 -0.300000 1.768872
v -0.960232 -0.300000 1.743601
v -1.403377 0.300000 1.423107
v -1.362641 0.300000 1.456538
v -1.403377 -0.300000 1.423107
v -1.779244 0.300000 0.893550
v -1.779244 -0.300000 0.893550
v -1.804521 -0.300000 0.846260
v -1.968086 0.300000 0.324031
v -1.962859 0.300000 0.377098
v -1.968086 -0.300000 0.324031
v -1.968086 0.300000 -0.324031
v -1.968086 -0.300000 -0.324031
v -1.962859 -0.300000 -0.377099
v -1.779244 0.300000 -0.893550
v -1.804521 0.300000 -0.846260
v -1.779244 -0.300000 -0.893550
v -1.404248 0.300000 -1.422392
v -1.404248 -0.300000 -1.422392
v -1.363521 -0.300000 -1.455816
v -0.913952 0.300000 -1.768338
v -0.961232 0.300000 -1.743067
v -0.913952 -0.300000 -1.768338
v -0.300000 0.300000 -1.970453
v -0.300000 -0.300000 -1.970453
v -0.246960 -0.300000 -1.975677
v -0.300000 0.300000 1.654998
v -0.300000 0.300000 1.847759
v -0.300000 0.300000 1.940326
v -0.300000 -0.300000 -1.901314
v 0.300000 0.300000 -1.654998
v 0.300000 0.300000 -1.847759
v 0.300000 0.300000 -1.940326
v 0.300000 -0.300000 1.901314
v -1.847759 0.300000 0.284935
v -1.464316 0.300000 0.160346
v 1.395050 -0.300000 -0.768718
v 1.652703 -0.300000 -0.852434
v 1.756173 -0.300000 -0.886054
v 1.847759 0.300000 -0.284935
v 1.464316 0.300000 -0.160346
v -1.395050 -0.300000 0.768718
v -1.652703 -0.300000 0.852434
v -1.756173 -0.300000 0.886054
v 1.139913 0.300000 1.058566
v -0.884847 0.300000 -1.728279
v -0.569835 0.300000 -1.294701
v 1.382131 -0.300000 1.391949
v 1.336557 -0.300000 1.329222
v 1.063669 -0.300000 0.953624
v 0.884847 0.300000 1.728279
v 0.569835 0.300000 1.294701
v -1.139913 0.300000 -1.058566
v -1.382131 -0.300000 -1.391949
v -1.336557 -0.300000 -1.329222
v -1.063669 -0.300000 -0.953624
v -1.734209 0.300000 -0.878917
v 1.570637 -0.300000 0.194892
v 1.828525 -0.300000 0.278685
v 1.734209 0.300000 0.878917
v -1.570637 -0.300000 -0.194892
v -1.828525 -0.300000 -0.278685
v -1.109187 0.300000 1.017704
v -1.313656 0.300000 1.299469
v -1.402569 0.300000 1.421994
v -1.080852 -0.300000 0.978658
v 0.581597 -0.300000 -1.312250
v 0.899652 -0.300000 -1.750540
v 1.109187 0.300000 -1.017704
v 1.313656 0.300000 -1.299469
v 1.402569 0.300000 -1.421994
v -0.870778 -0.300000 1.710750
v -0.581597 -0.300000 1.312250
v 1.080852 -0.300000 -0.978658
v -1.280214 -0.300000 -1.366870
v -1.341633 -0.300000 -1.432447
v -1.495728 -0.300000 0.701447
v -0.992677 -0.300000 -1.059870
v 1.280214 -0.300000 1.366870
v 1.341633 -0.300000 1.432447
v 1.692066 -0.300000 -0.793523
v 1.507362 -0.300000 0.289590
v 1.814614 -0.300000 0.348618
v 1.495728 -0.300000 -0.701447
v 0.992677 -0.300000 1.059870
v -1.507362 -0.300000 -0.289590
v -1.961571 -0.300000 -0.376851
v 0.231983 -0.300000 1.855866
v -0.231983 -0.300000 -1.855866
v -0.935095 -0.300000 1.697957
v -1.814614 -0.300000 -0.348618
v -1.777839 -0.300000 0.833747
v -1.692066 -0.300000 0.793523
v 0.935095 -0.300000 -1.697957
v 1.777839 -0.300000 -0.833747
v 1.961571 -0.300000 0.376851
v -1.358113 0.300000 1.451699
v 1.358113 0.300000 -1.451699
v 0.230970 0.300000 -1.847759
v 0.243935 0.300000 -1.951478
v -0.230970 0.300000 1.847759
v -0.243935 0.300000 1.951478
v 0.201790 0.300000 -1.614318
v -1.733206 0.300000 -0.812816
v -1.417901 0.300000 0.272403
v -1.060979 0.300000 1.134089
v -0.201790 0.300000 1.614318
v 1.733206 0.300000 0.812816
v 1.417901 0.300000 -0.272403
v 1.060979 0.300000 -1.134089
v 0.928825 0.300000 1.684301
v -0.928825 0.300000 -1.684301
v 1.847759 0.300000 -0.354986
v 1.263046 0.300000 -1.350080
v -1.847759 0.300000 0.354986
v -1.263046 0.300000 1.350080
v -0.300000 0.300000 -0.948961
v -0.315274 0.300000 -0.944328
v -0.801234 0.300000 -0.592413
v -0.812013 0.300000 -0.579278
v -1.000000 0.300000 0.000000
v -0.999095 0.300000 0.009187
v -0.999095 0.300000 -0.009187
v -0.812013 0.300000 0.579278
v -0.800879 0.300000 0.592845
v -0.314726 0.300000 0.944494
v -0.300000 0.300000 0.948961
v 0.300000 0.300000 0.948961
v 0.315274 0.300000 0.944328
v 0.812013 0.300000 0.579278
v 0.801234 0.300000 0.592413
v 0.999095 0.300000 0.009187
v 1.000000 0.300000 0.000000
v 0.999095 0.300000 -0.009187
v 0.812013 0.300000 -0.579278
v 0.800879 0.300000 -0.592845
v 0.314726 0.300000 -0.944494
v 0.300000 0.300000 -0.948961
v -0.195090 0.300000 -0.980785
v 0.195090 0.300000 -0.980785
v 0.000000 0.300000 -1.000000
v -0.980785 0.300000 -0.195090
v -0.831470 0.300000 -0.555570
v -0.923880 0.300000 -0.382683
v -0.831470 0.300000 0.555570
v -0.980785 0.300000 0.195090
v -0.923880 0.300000 0.382683
v -0.195090 0.300000 0.980785
v 0.195090 0.300000 0.980785
v 0.000000 0.300000 1.000000
v 0.980785 0.300000 0.195090
v 0.831470 0.300000 0.555570
v 0.923880 0.300000 0.382683
v 0.831470 0.300000 -0.555570
v 0.980785 0.300000 -0.195090
v 0.923880 0.300000 -0.382683
v -0.707107 0.300000 0.707107
v -0.555570 0.300000 0.831470
v -0.382683 0.300000 0.923880
v 0.707107 0.300000 -0.707107
v 0.382683 0.300000 -0.923880
v 0.555570 0.300000 -0.831470
v -0.707107 0.300000 -0.707107
v -0.555570 0.300000 -0.831470
v -0.382683 0.300000 -0.923880
v 0.382683 0.300000 0.923880
v 0.707107 0.300000 0.707107
v 0.555570 0.300000 0.831470
v 0.300000 -0.300000 -0.948961
v 0.314726 -0.300000 -0.944494
v 0.812013 -0.300000 -0.579278
v 0.800879 -0.300000 -0.592845
v 1.000000 -0.300000 0.000000
v 0.999095 -0.300000 0.009187
v 0.999095 -0.300000 -0.009187
v 0.812013 -0.300000 0.579278
v 0.801234 -0.300000 0.592413
v 0.315274 -0.300000 0.944328
v 0.300000 -0.300000 0.948961
v -0.300000 -0.300000 0.948961
v -0.314726 -0.300000 0.944494
v -0.812013 -0.300000 0.579278
v -0.800879 -0.300000 0.592845
v -0.999095 -0.300000 0.009187
v -1.000000 -0.300000 0.000000
v -0.999095 -0.300000 -0.009187
v -0.801234 -0.300000 -0.592413
v -0.812013 -0.300000 -0.579278
v -0.315274 -0.300000 -0.944328
v -0.300000 -0.300000 -0.948961
v 0.195090 -0.300000 -0.980785
v -0.195090 -0.300000 -0.980785
v 0.000000 -0.300000 -1.000000
v 0.923880 -0.300000 -0.382683
v 0.831470 -0.300000 -0.555570
v 0.980785 -0.300000 -0.195090
v 0.382683 -0.300000 0.923880
v 0.707107 -0.300000 0.707107
v 0.555570 -0.300000 0.831470
v -0.195090 -0.300000 0.980785
v 0.195090 -0.300000 0.980785
v 0.000000 -0.300000 1.000000
v -0.382683 -0.300000 -0.923880
v -0.707107 -0.300000 -0.707107
v -0.555570 -0.300000 -0.831470
v 0.831470 -0.300000 0.555570
v 0.980785 -0.300000 0.195090
v 0.923880 -0.300000 0.382683
v -0.980785 -0.300000 0.195090
v -0.831470 -0.300000 0.555570
v -0.923880 -0.300000 0.382683
v -0.831470 -0.300000 -0.555570
v -0.980785 -0.300000 -0.195090
v -0.923880 -0.300000 -0.382683
v 0.382683 -0.300000 -0.923880
v 0.555570 -0.300000 -0.831470
v 0.707107 -0.300000 -0.707107
v -0.382683 -0.300000 0.923880
v -0.555570 -0.300000 0.831470
v -0.707107 -0.300000 0.707107
vn 0.0980 -0.0000 -0.9952
vn 0.2903 -0.0000 -0.9569
vn 0.4714 -0.0000 -0.8819
vn 0.6344 -0.0000 -0.7730
vn 0.7730 -0.0000 -0.6344
vn 0.8819 -0.0000 -0.4714
vn 0.9952 -0.0000 -0.0980
vn 0.9952 -0.0000 0.0980
vn 0.8819 -0.0000 0.4714
vn 0.7730 -0.0000 0.6344
vn 0.6344 -0.0000 0.7730
vn 0.4714 -0.0000 0.8819
vn 0.2903 -0.0000 0.9569
vn 0.0980 -0.0000 0.9952
vn -0.0980 -0.0000 0.9952
vn -0.2903 -0.0000 0.9569
vn -0.4714 -0.0000 0.8819
vn -0.6344 -0.0000 0.7730
vn -0.7730 -0.0000 0.6344
vn -0.8819 -0.0000 0.4714
vn -0.9952 -0.0000 0.0980
vn -0.9952 -0.0000 -0.0980
vn -0.8819 -0.0000 -0.4714
vn -0.7730 -0.0000 -0.6344
vn -0.6344 -0.0000 -0.7730
vn -0.4714 -0.0000 -0.8819
vn -0.0000 1.0000 -0.0000
vn -0.2903 -0.0000 -0.9569
vn -0.0980 -0.0000 -0.9952
vn -0.0000 -1.0000 -0.0000
vn -1.0000 -0.0000 -0.0000
vn -0.0000 -0.0000 -1.0000
vn 1.0000 -0.0000 -0.0000
vn -0.0000 -0.0000 1.0000
vn -0.3090 -0.0000 -0.9511
vn 0.9511 -0.0000 -0.3090
vn 0.3090 -0.0000 0.9511
vn -0.9511 -0.0000 0.3090
vn 0.8090 -0.0000 -0.5878
vn 0.5878 -0.0000 0.8090
vn -0.8090 -0.0000 0.5878
vn -0.5878 -0.0000 -0.8090
vn 0.3090 -0.0000 -0.9511
vn 0.9511 -0.0000 0.3090
vn -0.3090 -0.0000 0.9511
vn -0.9511 -0.0000 -0.3090
vn -0.8094 -0.0000 -0.5873
vn 0.5873 -0.0000 -0.8094
vn 0.8094 -0.0000 0.5873
vn -0.5873 -0.0000 0.8094
vn -0.9569 -0.0000 0.2903
vn -0.9569 -0.0000 -0.2903
vn 0.9569 -0.0000 -0.2903
vn 0.9569 -0.0000 0.2903
vt 0.975973 1.000000
vt 0.968750 1.000000
vt 0.968750 0.500000
vt 0.975973 0.500000
vt 0.937500 1.000000
vt 0.937500 0.500000
vt 0.924161 1.000000
vt 0.924161 0.500000
vt 0.876117 1.000000
vt 0.875000 1.000000
vt 0.875000 0.500000
vt 0.876117 0.500000
vt 0.843750 1.000000
vt 0.843750 0.500000
vt 0.824085 0.500000
vt 0.824085 1.000000
vt 0.750000 1.000000
vt 0.750000 0.500000
vt 0.775952 0.500000
vt 0.775952 1.000000
vt 0.724048 0.500000
vt 0.724048 1.000000
vt 0.656250 1.000000
vt 0.656250 0.500000
vt 0.675915 0.500000
vt 0.675915 1.000000
vt 0.625000 1.000000
vt 0.625000 0.500000
vt 0.623972 0.500000
vt 0.623972 1.000000
vt 0.562500 1.000000
vt 0.562500 0.500000
vt 0.575929 0.500000
vt 0.575929 1.000000
vt 0.531250 1.000000
vt 0.531250 0.500000
vt 0.524027 0.500000
vt 0.524027 1.000000
vt 0.468750 1.000000
vt 0.468750 0.500000
vt 0.475973 0.500000
vt 0.475973 1.000000
vt 0.437500 1.000000
vt 0.437500 0.500000
vt 0.424161 0.500000
vt 0.424161 1.000000
vt 0.375000 1.000000
vt 0.375000 0.500000
vt 0.376117 0.500000
vt 0.376117 1.000000
vt 0.343750 1.000000
vt 0.343750 0.500000
vt 0.324085 1.000000
vt 0.324085 0.500000
vt 0.275952 1.000000
vt 0.250000 1.000000
vt 0.250000 0.500000
vt 0.275952 0.500000
vt 0.224048 1.000000
vt 0.224048 0.500000
vt 0.175915 1.000000
vt 0.156250 1.000000
vt 0.156250 0.500000
vt 0.175915 0.500000
vt 0.125000 1.000000
vt 0.125000 0.500000
vt 0.123972 1.000000
vt 0.123972 0.500000
vt 0.075929 1.000000
vt 0.062500 1.000000
vt 0.062500 0.500000
vt 0.075929 0.500000
vt 0.214000 0.363875
vt 0.214000 0.486454
vt 0.203178 0.485388
vt 0.158156 0.471731
vt 0.140326 0.462201
vt 0.143818 0.457393
vt 0.181620 0.405364
vt 0.212167 0.363319
vt 0.113210 0.377028
vt 0.081490 0.420687
vt 0.080294 0.419706
vt 0.050447 0.383337
vt 0.036491 0.357226
vt 0.041895 0.355470
vt 0.152558 0.319513
vt 0.153852 0.321090
vt 0.013830 0.288884
vt 0.010000 0.250000
vt 0.013830 0.211116
vt 0.028269 0.215808
vt 0.074282 0.230758
vt 0.130109 0.248898
vt 0.130000 0.250000
vt 0.130109 0.251102
vt 0.036491 0.142774
vt 0.050447 0.116663
vt 0.080294 0.080294
vt 0.081595 0.079227
vt 0.081692 0.079361
vt 0.092361 0.094064
vt 0.116898 0.127876
vt 0.153895 0.178859
vt 0.152558 0.180487
vt 0.140445 0.037735
vt 0.158156 0.028269
vt 0.203178 0.014612
vt 0.214000 0.013546
vt 0.214000 0.017161
vt 0.214000 0.028269
vt 0.214000 0.051400
vt 0.214000 0.136125
vt 0.212233 0.136661
vt 0.286000 0.136125
vt 0.286000 0.013546
vt 0.296822 0.014612
vt 0.341844 0.028269
vt 0.359674 0.037799
vt 0.356182 0.042607
vt 0.318380 0.094636
vt 0.287833 0.136681
vt 0.386790 0.122972
vt 0.418510 0.079313
vt 0.419706 0.080294
vt 0.449553 0.116663
vt 0.463509 0.142774
vt 0.458105 0.144530
vt 0.347442 0.180487
vt 0.346148 0.178910
vt 0.486170 0.211116
vt 0.490000 0.250000
vt 0.486170 0.288884
vt 0.471731 0.284192
vt 0.425718 0.269242
vt 0.369891 0.251102
vt 0.370000 0.250000
vt 0.369891 0.248898
vt 0.383102 0.372124
vt 0.346105 0.321141
vt 0.347442 0.319513
vt 0.463509 0.357226
vt 0.449553 0.383337
vt 0.419706 0.419706
vt 0.418405 0.420773
vt 0.418308 0.420639
vt 0.407639 0.405936
vt 0.359555 0.462265
vt 0.341844 0.471731
vt 0.296822 0.485388
vt 0.286000 0.486454
vt 0.286000 0.482839
vt 0.286000 0.471731
vt 0.286000 0.448600
vt 0.286000 0.363875
vt 0.287767 0.363339
vt 0.279635 0.487081
vt 0.279272 0.484177
vt 0.250000 0.490000
vt 0.226589 0.367694
vt 0.250000 0.370000
vt 0.273411 0.367694
vt 0.274215 0.443718
vt 0.277716 0.471731
vt 0.138541 0.452116
vt 0.134652 0.459168
vt 0.116663 0.449553
vt 0.042015 0.347538
vt 0.033458 0.351551
vt 0.028269 0.341844
vt 0.014612 0.296822
vt 0.132306 0.273411
vt 0.139134 0.295922
vt 0.150224 0.316668
vt 0.028269 0.207402
vt 0.014457 0.204748
vt 0.014612 0.203178
vt 0.028269 0.158156
vt 0.150224 0.183332
vt 0.139134 0.204078
vt 0.132306 0.226589
vt 0.079852 0.217312
vt 0.086483 0.075215
vt 0.087026 0.075796
vt 0.220365 0.012919
vt 0.220728 0.015823
vt 0.250000 0.010000
vt 0.273411 0.132306
vt 0.250000 0.130000
vt 0.226589 0.132306
vt 0.225785 0.056282
vt 0.222284 0.028269
vt 0.361459 0.047884
vt 0.365348 0.040832
vt 0.383337 0.050447
vt 0.457985 0.152462
vt 0.466542 0.148449
vt 0.471731 0.158156
vt 0.485388 0.203178
vt 0.367694 0.226589
vt 0.360866 0.204078
vt 0.349776 0.183332
vt 0.471731 0.292598
vt 0.485543 0.295252
vt 0.485388 0.296822
vt 0.471731 0.341844
vt 0.349776 0.316669
vt 0.360866 0.295922
vt 0.367694 0.273411
vt 0.420148 0.282688
vt 0.413517 0.424785
vt 0.412974 0.424204
vt 0.098435 0.087990
vt 0.116663 0.050447
vt 0.204078 0.139134
vt 0.183332 0.150224
vt 0.165147 0.165147
vt 0.122683 0.113909
vt 0.401565 0.412010
vt 0.383337 0.449553
vt 0.295922 0.360866
vt 0.316668 0.349776
vt 0.334853 0.334853
vt 0.377317 0.386091
vt 0.165147 0.334853
vt 0.183332 0.349776
vt 0.204078 0.360866
vt 0.334853 0.165147
vt 0.316668 0.150224
vt 0.295922 0.139134
vt 0.031250 1.000000
vt 0.031250 0.500000
vt 0.024027 1.000000
vt 0.024027 0.500000
vt 0.819792 0.407470
vt 0.787767 0.363339
vt 0.786000 0.363875
vt 0.786000 0.486454
vt 0.796822 0.485388
vt 0.841844 0.471731
vt 0.859555 0.462265
vt 0.857958 0.460065
vt 0.918405 0.420773
vt 0.919706 0.419706
vt 0.949553 0.383337
vt 0.963509 0.357226
vt 0.960741 0.356326
vt 0.948324 0.352292
vt 0.917406 0.342246
vt 0.847441 0.319513
vt 0.846105 0.321141
vt 0.879702 0.367439
vt 0.938477 0.226613
vt 0.869891 0.248898
vt 0.870000 0.250000
vt 0.869891 0.251102
vt 0.986170 0.288884
vt 0.990000 0.250000
vt 0.986170 0.211116
vt 0.969423 0.216558
vt 0.847442 0.180487
vt 0.963509 0.142774
vt 0.949553 0.116663
vt 0.919706 0.080294
vt 0.918510 0.079313
vt 0.915856 0.082966
vt 0.910387 0.090493
vt 0.877640 0.135565
vt 0.846148 0.178910
vt 0.787833 0.136681
vt 0.859674 0.037799
vt 0.841844 0.028269
vt 0.796822 0.014612
vt 0.786000 0.013546
vt 0.786000 0.021842
vt 0.786000 0.136125
vt 0.714000 0.013546
vt 0.703178 0.014612
vt 0.658156 0.028269
vt 0.640445 0.037735
vt 0.645507 0.044710
vt 0.680208 0.092530
vt 0.712233 0.136661
vt 0.714000 0.136125
vt 0.580294 0.080294
vt 0.550447 0.116663
vt 0.536491 0.142774
vt 0.539259 0.143674
vt 0.551676 0.147708
vt 0.582594 0.157754
vt 0.652558 0.180487
vt 0.653895 0.178859
vt 0.620298 0.132561
vt 0.581595 0.079227
vt 0.561524 0.273387
vt 0.630109 0.251102
vt 0.630000 0.250000
vt 0.630109 0.248898
vt 0.513830 0.211116
vt 0.510000 0.250000
vt 0.513830 0.288884
vt 0.530577 0.283442
vt 0.622360 0.364435
vt 0.653852 0.321090
vt 0.652558 0.319513
vt 0.536491 0.357226
vt 0.550447 0.383337
vt 0.580294 0.419706
vt 0.581490 0.420687
vt 0.584144 0.417034
vt 0.589613 0.409507
vt 0.658156 0.471731
vt 0.703178 0.485388
vt 0.714000 0.486454
vt 0.714000 0.478158
vt 0.714000 0.363875
vt 0.712167 0.363319
vt 0.640326 0.462201
vt 0.720365 0.487081
vt 0.750000 0.490000
vt 0.773411 0.367694
vt 0.750000 0.370000
vt 0.726589 0.367694
vt 0.722162 0.472704
vt 0.862211 0.453755
vt 0.865228 0.459232
vt 0.883337 0.449553
vt 0.966542 0.351551
vt 0.963340 0.350050
vt 0.971731 0.341844
vt 0.985388 0.296822
vt 0.867694 0.273411
vt 0.860865 0.295922
vt 0.849776 0.316668
vt 0.929487 0.334174
vt 0.953048 0.345223
vt 0.985388 0.203178
vt 0.985389 0.204778
vt 0.985543 0.204748
vt 0.913622 0.075302
vt 0.910996 0.078106
vt 0.869121 0.122816
vt 0.903626 0.085976
vt 0.883337 0.050447
vt 0.795922 0.139134
vt 0.816669 0.150224
vt 0.834853 0.165147
vt 0.777838 0.027296
vt 0.779635 0.012919
vt 0.750000 0.010000
vt 0.726589 0.132306
vt 0.750000 0.130000
vt 0.773411 0.132306
vt 0.637789 0.046245
vt 0.634772 0.040768
vt 0.616663 0.050447
vt 0.533458 0.148449
vt 0.536659 0.149950
vt 0.514612 0.296822
vt 0.514611 0.295222
vt 0.514457 0.295252
vt 0.586378 0.424698
vt 0.589004 0.421894
vt 0.630879 0.377184
vt 0.596374 0.414024
vt 0.616663 0.449553
vt 0.704078 0.360865
vt 0.683332 0.349776
vt 0.665147 0.334853
vt 0.971731 0.158156
vt 0.849776 0.183332
vt 0.860865 0.204078
vt 0.867694 0.226589
vt 0.930884 0.215249
vt 0.967754 0.208166
vt 0.528269 0.158156
vt 0.514612 0.203178
vt 0.632306 0.226589
vt 0.639134 0.204078
vt 0.650224 0.183332
vt 0.570513 0.165826
vt 0.546952 0.154777
vt 0.532246 0.291834
vt 0.528269 0.341844
vt 0.650224 0.316668
vt 0.639134 0.295922
vt 0.632306 0.273411
vt 0.569116 0.284751
vt 0.795922 0.360866
vt 0.834853 0.334853
vt 0.816669 0.349776
vt 0.665147 0.165147
vt 0.683331 0.150224
vt 0.704078 0.139134
vt 0.625000 0.227628
vt 0.625000 0.250000
vt 0.375000 0.250000
vt 0.375000 0.227628
vt 0.375000 0.000000
vt 0.625000 0.000000
vt 0.625000 0.022372
vt 0.375000 0.022372
vt 0.625000 0.750000
vt 0.375000 0.750000
vt 0.375000 0.727628
vt 0.625000 0.727628
vt 0.375000 0.522372
vt 0.625000 0.522372
vt 0.352900 0.727900
vt 0.125000 0.750000
vt 0.125000 0.727628
vt 0.250000 0.729167
vt 0.250000 0.520833
vt 0.147100 0.522100
vt 0.125000 0.522372
vt 0.852900 0.727900
vt 0.875000 0.727628
vt 0.875000 0.750000
vt 0.750000 0.729167
vt 0.647100 0.522100
vt 0.875000 0.522372
vt 0.750000 0.520833
vt 0.625000 0.227515
vt 0.375000 0.227515
vt 0.625000 0.022297
vt 0.375000 0.022297
vt 0.375000 0.727515
vt 0.625000 0.727515
vt 0.375000 0.522297
vt 0.625000 0.522297
vt 0.125000 0.522485
vt 0.347948 0.521555
vt 0.184617 0.521154
vt 0.146994 0.521994
vt 0.125000 0.727703
vt 0.152052 0.728445
vt 0.315383 0.728846
vt 0.353006 0.728006
vt 0.646702 0.521702
vt 0.875000 0.522485
vt 0.815383 0.521154
vt 0.652052 0.521555
vt 0.853298 0.728298
vt 0.875000 0.727703
vt 0.684617 0.728846
vt 0.847948 0.728445
vt 0.375000 0.227924
vt 0.625000 0.227924
vt 0.375000 0.022509
vt 0.625000 0.022509
vt 0.625000 0.727924
vt 0.375000 0.727924
vt 0.625000 0.522509
vt 0.375000 0.522509
vt 0.353085 0.728085
vt 0.125000 0.727491
vt 0.217284 0.729086
vt 0.146915 0.521915
vt 0.125000 0.522076
vt 0.282716 0.520914
vt 0.852873 0.727873
vt 0.875000 0.727491
vt 0.782716 0.729086
vt 0.647127 0.522127
vt 0.875000 0.522076
vt 0.717284 0.520914
vt 0.625000 0.227703
vt 0.375000 0.227703
vt 0.625000 0.022485
vt 0.375000 0.022485
vt 0.375000 0.727703
vt 0.625000 0.727703
vt 0.375000 0.522485
vt 0.625000 0.522485
vt 0.146702 0.521702
vt 0.125000 0.522297
vt 0.315383 0.521154
vt 0.152052 0.521555
vt 0.353298 0.728298
vt 0.125000 0.727515
vt 0.184617 0.728846
vt 0.347948 0.728445
vt 0.646994 0.521994
vt 0.875000 0.522297
vt 0.847948 0.521555
vt 0.684617 0.521154
vt 0.853006 0.728006
vt 0.875000 0.727515
vt 0.652052 0.728445
vt 0.815383 0.728846
vt 0.625000 0.227492
vt 0.375000 0.227492
vt 0.625000 0.022082
vt 0.375000 0.022082
vt 0.375000 0.727492
vt 0.625000 0.727492
vt 0.375000 0.522082
vt 0.625000 0.522082
vt 0.352873 0.727873
vt 0.125000 0.727918
vt 0.282242 0.729089
vt 0.147127 0.522127
vt 0.125000 0.522508
vt 0.217758 0.520911
vt 0.875000 0.727918
vt 0.717758 0.729089
vt 0.853081 0.728081
vt 0.646919 0.521919
vt 0.875000 0.522508
vt 0.782242 0.520911
vt 0.968750 0.675000
vt 0.968750 0.825000
vt 1.000000 0.825000
vt 1.000000 0.675000
vt 0.937500 0.675000
vt 0.937500 0.825000
vt 0.948821 0.825000
vt 0.951274 0.825000
vt 0.951274 0.675000
vt 0.948821 0.675000
vt 0.906250 0.675000
vt 0.906250 0.825000
vt 0.875000 0.675000
vt 0.875000 0.825000
vt 0.843750 0.825000
vt 0.848639 0.825000
vt 0.851437 0.825000
vt 0.851437 0.675000
vt 0.848639 0.675000
vt 0.843750 0.675000
vt 0.812500 0.825000
vt 0.812500 0.675000
vt 0.781250 0.825000
vt 0.781250 0.675000
vt 0.751472 0.675000
vt 0.750000 0.675000
vt 0.750000 0.825000
vt 0.751472 0.825000
vt 0.718750 0.825000
vt 0.748528 0.825000
vt 0.748528 0.675000
vt 0.718750 0.675000
vt 0.687500 0.825000
vt 0.687500 0.675000
vt 0.656250 0.825000
vt 0.656250 0.675000
vt 0.625000 0.825000
vt 0.648652 0.825000
vt 0.651361 0.825000
vt 0.651361 0.675000
vt 0.648652 0.675000
vt 0.625000 0.675000
vt 0.593750 0.675000
vt 0.593750 0.825000
vt 0.562500 0.825000
vt 0.562500 0.675000
vt 0.548726 0.825000
vt 0.551271 0.825000
vt 0.551271 0.675000
vt 0.548726 0.675000
vt 0.531250 0.675000
vt 0.531250 0.825000
vt 0.500000 0.825000
vt 0.500000 0.675000
vt 0.468750 0.825000
vt 0.468750 0.675000
vt 0.448821 0.825000
vt 0.451274 0.825000
vt 0.451274 0.675000
vt 0.448821 0.675000
vt 0.437500 0.675000
vt 0.437500 0.825000
vt 0.406250 0.825000
vt 0.406250 0.675000
vt 0.375000 0.825000
vt 0.375000 0.675000
vt 0.343750 0.675000
vt 0.343750 0.825000
vt 0.348639 0.825000
vt 0.351437 0.825000
vt 0.351437 0.675000
vt 0.348639 0.675000
vt 0.312500 0.675000
vt 0.312500 0.825000
vt 0.281250 0.675000
vt 0.281250 0.825000
vt 0.250000 0.675000
vt 0.250000 0.825000
vt 0.251472 0.825000
vt 0.251472 0.675000
vt 0.218750 0.675000
vt 0.218750 0.825000
vt 0.248528 0.825000
vt 0.248528 0.675000
vt 0.187500 0.675000
vt 0.187500 0.825000
vt 0.156250 0.675000
vt 0.156250 0.825000
vt 0.125000 0.675000
vt 0.125000 0.825000
vt 0.148652 0.825000
vt 0.151361 0.825000
vt 0.151361 0.675000
vt 0.148652 0.675000
vt 0.093750 0.675000
vt 0.093750 0.825000
vt 0.062500 0.675000
vt 0.062500 0.825000
vt 0.031250 0.675000
vt 0.031250 0.825000
vt 0.048726 0.825000
vt 0.051271 0.825000
vt 0.051271 0.675000
vt 0.048726 0.675000
vt 0.000000 0.675000
vt 0.000000 0.825000
s 0
f 105/1/1 20/2/1 15/3/1 107/4/1
f 15/3/2 20/2/2 31/5/2 28/6/2
f 28/6/3 31/5/3 108/7/3 109/8/3
f 111/9/4 50/10/4 49/11/4 113/12/4
f 49/11/5 50/10/5 52/13/5 51/14/5
f 115/15/6 51/14/6 52/13/6 114/16/6
f 58/17/7 57/18/7 119/19/7 117/20/7
f 121/21/8 57/18/8 58/17/8 120/22/8
f 64/23/9 63/24/9 125/25/9 123/26/9
f 63/24/10 64/23/10 66/27/10 65/28/10
f 127/29/11 65/28/11 66/27/11 126/30/11
f 70/31/12 69/32/12 131/33/12 129/34/12
f 69/32/13 70/31/13 72/35/13 71/36/13
f 133/37/14 71/36/14 72/35/14 132/38/14
f 76/39/15 75/40/15 137/41/15 135/42/15
f 75/40/16 76/39/16 78/43/16 77/44/16
f 139/45/17 77/44/17 78/43/17 138/46/17
f 82/47/18 81/48/18 143/49/18 141/50/18
f 81/48/19 82/47/19 84/51/19 83/52/19
f 83/52/20 84/51/20 144/53/20 145/54/20
f 147/55/21 90/56/21 89/57/21 149/58/21
f 89/57/22 90/56/22 150/59/22 151/60/22
f 153/61/23 96/62/23 95/63/23 155/64/23
f 95/63/24 96/62/24 98/65/24 97/66/24
f 97/66/25 98/65/25 156/67/25 157/68/25
f 159/69/26 102/70/26 101/71/26 161/72/26
f 255/73/27 162/74/27 104/75/27 102/76/27 159/77/27 184/78/27 185/79/27 256/80/27
f 191/81/27 156/82/27 98/83/27 96/84/27 153/85/27 195/86/27 258/87/27 257/88/27
f 150/89/27 90/90/27 147/91/27 173/92/27 174/93/27 260/94/27 259/95/27 261/96/27
f 144/97/27 84/98/27 82/99/27 141/100/27 203/101/27 202/102/27 201/103/27 263/104/27 262/105/27
f 138/106/27 78/107/27 76/108/27 135/109/27 167/110/27 166/111/27 165/112/27 265/113/27 264/114/27
f 266/115/27 132/116/27 72/117/27 70/118/27 129/119/27 189/120/27 190/121/27 267/122/27
f 183/123/27 126/124/27 66/125/27 64/126/27 123/127/27 198/128/27 268/129/27 269/130/27
f 120/131/27 58/132/27 117/133/27 178/134/27 179/135/27 272/136/27 271/137/27 270/138/27
f 207/139/27 274/140/27 273/141/27 114/142/27 52/143/27 50/144/27 111/145/27 209/146/27 208/147/27
f 108/148/27 31/149/27 20/150/27 105/151/27 171/152/27 170/153/27 169/154/27 276/155/27 275/156/27
f 171/152/27 105/151/27 106/157/27 238/158/27
f 238/158/27 106/157/27 10/159/27 162/74/27 255/73/27 277/160/27 279/161/27 278/162/27 276/155/27 169/154/27 241/163/27 237/164/27 170/153/27 171/152/27
f 250/165/27 160/166/27 100/167/27 156/82/27 191/81/27 185/79/27 184/78/27
f 242/168/27 154/169/27 94/170/27 92/171/27 150/89/27 261/96/27 280/172/27 282/173/27 281/174/27 258/87/27 195/86/27
f 253/175/27 148/176/27 88/177/27 86/178/27 144/97/27 262/105/27 283/179/27 285/180/27 284/181/27 260/94/27 174/93/27 243/182/27 173/92/27
f 203/101/27 141/100/27 142/183/27 235/184/27
f 167/110/27 135/109/27 136/185/27 240/186/27
f 240/186/27 136/185/27 74/187/27 132/116/27 266/115/27 287/188/27 288/189/27 286/190/27 265/113/27 165/112/27 245/191/27 239/192/27 166/111/27 167/110/27
f 249/193/27 130/194/27 68/195/27 126/124/27 183/123/27 190/121/27 189/120/27
f 246/196/27 124/197/27 62/198/27 60/199/27 120/131/27 270/138/27 289/200/27 291/201/27 290/202/27 268/129/27 198/128/27
f 251/203/27 118/204/27 56/205/27 54/206/27 114/142/27 273/141/27 292/207/27 294/208/27 293/209/27 272/136/27 179/135/27 247/210/27 178/134/27
f 112/211/27 236/212/27 209/146/27 111/145/27
f 250/165/27 184/78/27 159/77/27 160/166/27
f 173/92/27 147/91/27 148/176/27 253/175/27
f 254/213/27 202/102/27 203/101/27 235/184/27 142/183/27 80/214/27 138/106/27 264/114/27 297/215/27 296/216/27 295/217/27 263/104/27 201/103/27 244/218/27
f 249/193/27 189/120/27 129/119/27 130/194/27
f 178/134/27 117/133/27 118/204/27 251/203/27
f 252/219/27 208/147/27 209/146/27 236/212/27 112/211/27 47/220/27 108/148/27 275/156/27 299/221/27 300/222/27 298/223/27 274/140/27 207/139/27 248/224/27
f 241/163/27 169/154/27 170/153/27 237/164/27
f 242/168/27 195/86/27 153/85/27 154/169/27
f 174/93/27 173/92/27 243/182/27
f 201/103/27 202/102/27 254/213/27 244/218/27
f 245/191/27 165/112/27 166/111/27 239/192/27
f 246/196/27 198/128/27 123/127/27 124/197/27
f 179/135/27 178/134/27 247/210/27
f 207/139/27 208/147/27 252/219/27 248/224/27
f 256/80/27 185/79/27 191/81/27 257/88/27 301/225/27 302/226/27 303/227/27
f 190/121/27 183/123/27 269/130/27 305/228/27 306/229/27 304/230/27 267/122/27
f 101/71/28 102/70/28 104/231/28 103/232/28
f 103/232/29 104/231/29 162/233/29 163/234/29
f 205/235/30 308/236/30 307/237/30 107/238/30 15/239/30 28/240/30 109/241/30 206/242/30
f 113/243/30 49/244/30 51/245/30 115/246/30 177/247/30 176/248/30 175/249/30 309/250/30 310/251/30 212/252/30
f 196/253/30 312/254/30 311/255/30 313/256/30 119/257/30 57/258/30 121/259/30 197/260/30
f 314/261/30 125/262/30 63/263/30 65/264/30 127/265/30 186/266/30 187/267/30 188/268/30 315/269/30
f 316/270/30 131/271/30 69/272/30 71/273/30 133/274/30 172/275/30 317/276/30
f 137/277/30 75/278/30 77/279/30 139/280/30 210/281/30 211/282/30 319/283/30 318/284/30
f 81/285/30 83/286/30 145/287/30 182/288/30 181/289/30 180/290/30 320/291/30 321/292/30 204/293/30 143/294/30
f 199/295/30 324/296/30 323/297/30 322/298/30 149/299/30 89/300/30 151/301/30 200/302/30
f 194/303/30 325/304/30 326/305/30 155/306/30 95/307/30 97/308/30 157/309/30 192/310/30 193/311/30
f 101/312/30 103/313/30 163/314/30 168/315/30 328/316/30 327/317/30 161/318/30
f 164/319/30 2/320/30 107/238/30 307/237/30 329/321/30 331/322/30 330/323/30 328/316/30 168/315/30 227/324/30
f 232/325/30 110/326/30 42/327/30 113/243/30 212/252/30 205/235/30 206/242/30
f 116/328/30 233/329/30 177/247/30 115/246/30
f 53/330/30 55/331/30 119/257/30 313/256/30 334/332/30 332/333/30 333/334/30 309/250/30 175/249/30 222/335/30 219/336/30 176/248/30 177/247/30 233/329/30 116/328/30
f 59/337/30 234/338/30 122/339/30
f 186/266/30 127/265/30 128/340/30 218/341/30
f 315/269/30 188/268/30 223/342/30 217/343/30 187/267/30 186/266/30 218/341/30 128/340/30 67/344/30 131/271/30 316/270/30 335/345/30 337/346/30 336/347/30
f 226/348/30 134/349/30 73/350/30 137/277/30 318/284/30 338/351/30 340/352/30 339/353/30 317/276/30 172/275/30
f 228/354/30 140/355/30 79/356/30 143/294/30 204/293/30 211/282/30 210/281/30
f 146/357/30 230/358/30 182/288/30 145/287/30
f 91/359/30 225/360/30 152/361/30
f 157/309/30 158/362/30 214/363/30 192/310/30
f 194/303/30 216/364/30 213/365/30 193/311/30 192/310/30 214/363/30 158/362/30 99/366/30 161/318/30 327/317/30 341/367/30 343/368/30 342/369/30 325/304/30
f 232/325/30 206/242/30 109/241/30 110/326/30
f 234/338/30 59/337/30 61/370/30 125/262/30 314/261/30 344/371/30 346/372/30 345/373/30 312/254/30 196/253/30 220/374/30 221/375/30 197/260/30 121/259/30 122/339/30
f 228/354/30 210/281/30 139/280/30 140/355/30
f 230/358/30 146/357/30 85/376/30 87/377/30 149/299/30 322/298/30 347/378/30 349/379/30 348/380/30 320/291/30 180/290/30 215/381/30 231/382/30 181/289/30 182/288/30
f 229/383/30 200/302/30 151/301/30 152/361/30 225/360/30 91/359/30 93/384/30 155/306/30 326/305/30 350/385/30 352/386/30 351/387/30 324/296/30 199/295/30 224/388/30
f 176/248/30 219/336/30 222/335/30 175/249/30
f 168/315/30 163/314/30 164/319/30 227/324/30
f 220/374/30 196/253/30 197/260/30 221/375/30
f 187/267/30 217/343/30 223/342/30 188/268/30
f 172/275/30 133/274/30 134/349/30 226/348/30
f 181/289/30 231/382/30 215/381/30 180/290/30
f 199/295/30 200/302/30 229/383/30 224/388/30
f 193/311/30 213/365/30 216/364/30 194/303/30
f 353/389/30 308/236/30 205/235/30 212/252/30 310/251/30 355/390/30 354/391/30
f 319/283/30 211/282/30 204/293/30 321/292/30 358/392/30 357/393/30 356/394/30
f 162/395/31 24/396/31 13/397/31 163/398/31
f 6/399/31 8/400/31 135/401/31 137/402/31
f 13/397/32 24/396/32 43/28/32 40/48/32
f 35/403/33 30/404/33 133/405/33 132/406/33
f 107/407/33 40/48/33 43/28/33 105/408/33
f 30/404/34 35/403/34 8/27/34 6/47/34
f 134/409/30 133/405/30 30/404/30 6/410/30 137/411/30 73/412/30
f 13/66/30 40/48/30 107/407/30 2/413/30 164/414/30 163/415/30
f 136/416/27 135/417/27 8/418/27 35/403/27 132/406/27 74/419/27
f 106/420/27 105/408/27 43/28/27 24/11/27 162/421/27 10/422/27
f 114/423/35 19/396/35 14/397/35 115/424/35
f 1/399/35 7/400/35 147/425/35 149/426/35
f 14/397/36 19/396/36 46/28/36 39/48/36
f 32/403/37 25/404/37 145/427/37 144/428/37
f 119/429/37 39/48/37 46/28/37 117/430/37
f 25/404/38 32/403/38 7/27/38 1/47/38
f 115/431/30 14/66/30 39/48/30 119/429/30 55/432/30 53/433/30 116/434/30
f 145/427/30 25/404/30 1/410/30 149/435/30 87/436/30 85/437/30 146/438/30
f 118/439/27 117/430/27 46/28/27 19/11/27 114/440/27 54/441/27 56/442/27
f 148/443/27 147/444/27 7/418/27 32/403/27 144/428/27 86/445/27 88/446/27
f 21/396/39 16/397/39 127/447/39 126/448/39
f 161/449/39 5/399/39 9/400/39 159/450/39
f 16/397/40 21/396/40 48/28/40 37/48/40
f 156/451/41 34/403/41 29/404/41 157/452/41
f 37/48/41 48/28/41 129/453/41 131/454/41
f 29/404/42 34/403/42 9/27/42 5/47/42
f 158/455/30 157/452/30 29/404/30 5/410/30 161/456/30 99/457/30
f 128/458/30 127/459/30 16/66/30 37/48/30 131/454/30 67/460/30
f 160/461/27 159/462/27 9/418/27 34/403/27 156/451/27 100/463/27
f 130/464/27 129/453/27 48/28/27 21/11/27 126/465/27 68/466/27
f 120/467/43 22/396/43 18/397/43 121/468/43
f 4/399/43 12/400/43 153/469/43 155/470/43
f 18/397/44 22/396/44 45/28/44 38/48/44
f 36/403/45 27/404/45 151/471/45 150/472/45
f 125/473/45 38/48/45 45/28/45 123/474/45
f 27/404/46 36/403/46 12/27/46 4/47/46
f 122/475/30 121/476/30 18/66/30 38/48/30 125/473/30 61/477/30 59/478/30
f 152/479/30 151/471/30 27/404/30 4/410/30 155/480/30 93/481/30 91/482/30
f 124/483/27 123/474/27 45/28/27 22/11/27 120/484/27 60/485/27 62/486/27
f 154/487/27 153/488/27 12/418/27 36/403/27 150/472/27 92/489/27 94/490/27
f 108/491/47 23/396/47 17/397/47 109/492/47
f 3/399/47 11/400/47 141/493/47 143/494/47
f 17/397/48 23/396/48 44/28/48 41/48/48
f 33/403/49 26/404/49 139/495/49 138/496/49
f 113/497/49 41/48/49 44/28/49 111/498/49
f 26/404/50 33/403/50 11/27/50 3/47/50
f 140/499/30 139/495/30 26/404/30 3/410/30 143/500/30 79/501/30
f 110/502/30 109/503/30 17/66/30 41/48/30 113/497/30 42/504/30
f 141/505/27 11/418/27 33/403/27 138/496/27 80/506/27 142/507/27
f 112/508/27 111/498/27 44/28/27 23/11/27 108/509/27 47/510/27
f 329/511/15 278/512/15 279/513/15 331/514/15
f 353/515/16 299/516/16 275/517/16 276/518/16 278/512/16 329/511/16 307/519/16 308/520/16
f 354/521/17 300/522/17 299/516/17 353/515/17
f 355/523/18 298/524/18 300/522/18 354/521/18
f 292/525/19 273/526/19 274/527/19 298/524/19 355/523/19 310/528/19 309/529/19 333/530/19
f 294/531/20 292/525/20 333/530/20 332/532/20
f 293/533/51 294/531/51 332/532/51 334/534/51
f 313/535/21 311/536/21 271/537/21 272/538/21 293/533/21 334/534/21
f 289/539/22 270/540/22 271/537/22 311/536/22 312/541/22 345/542/22
f 291/543/52 289/539/52 345/542/52 346/544/52
f 290/545/23 291/543/23 346/544/23 344/546/23
f 305/547/24 269/548/24 268/549/24 290/545/24 344/546/24 314/550/24 315/551/24 336/552/24
f 305/547/25 336/552/25 337/553/25 306/554/25
f 304/555/26 306/554/26 337/553/26 335/556/26
f 266/557/28 267/558/28 304/555/28 335/556/28 316/559/28 317/560/28 339/561/28 287/562/28
f 288/563/29 287/562/29 339/561/29 340/564/29
f 286/565/1 288/563/1 340/564/1 338/566/1
f 264/567/2 265/568/2 286/565/2 338/566/2 318/569/2 319/570/2 356/571/2 297/572/2
f 296/573/3 297/572/3 356/571/3 357/574/3
f 295/575/4 296/573/4 357/574/4 358/576/4
f 348/577/5 283/578/5 262/579/5 263/580/5 295/575/5 358/576/5 321/581/5 320/582/5
f 349/583/6 285/584/6 283/578/6 348/577/6
f 347/585/53 284/586/53 285/584/53 349/583/53
f 323/587/7 259/588/7 260/589/7 284/586/7 347/585/7 322/590/7
f 351/591/8 280/592/8 261/593/8 259/588/8 323/587/8 324/594/8
f 352/595/54 282/596/54 280/592/54 351/591/54
f 350/597/9 281/598/9 282/596/9 352/595/9
f 342/599/10 301/600/10 257/601/10 258/602/10 281/598/10 350/597/10 326/603/10 325/604/10
f 343/605/11 302/606/11 301/600/11 342/599/11
f 341/607/12 303/608/12 302/606/12 343/605/12
f 330/609/13 277/610/13 255/611/13 256/612/13 303/608/13 341/607/13 327/613/13 328/614/13
f 331/615/14 279/616/14 277/610/14 330/609/14
