# Blender 4.3.2
# www.blender.org
mtllib matrix light.mtl
o Cube
v 1.000000 -0.050000 0.800000
v 0.800000 -0.050000 1.000000
v 0.941421 -0.050000 0.941421
v 0.800000 -0.050000 -1.000000
v 1.000000 -0.050000 -0.800000
v 0.941421 -0.050000 -0.941421
v -1.000000 -0.050000 -0.800000
v -0.800000 -0.050000 -1.000000
v -0.941421 -0.050000 -0.941421
v -0.800000 -0.050000 1.000000
v -1.000000 -0.050000 0.800000
v -0.941421 -0.050000 0.941421
v 0.760217 0.300000 0.800000
v 0.800000 0.100000 1.000000
v 0.788348 0.241421 0.941421
v 0.800000 0.300000 0.760217
v 1.000000 0.100000 0.800000
v 0.941421 0.241421 0.788348
v 0.788348 0.300000 0.788348
v 0.941421 0.100000 0.941421
v 0.896587 0.241421 0.896587
v 0.800000 0.300000 -0.760217
v 1.000000 0.100000 -0.800000
v 0.941421 0.241421 -0.788348
v 0.760217 0.300000 -0.800000
v 0.800000 0.100000 -1.000000
v 0.788348 0.241421 -0.941421
v 0.788348 0.300000 -0.788348
v 0.941421 0.100000 -0.941421
v 0.896587 0.241421 -0.896587
v -0.760217 0.300000 -0.800000
v -0.800000 0.100000 -1.000000
v -0.788348 0.241421 -0.941421
v -0.800000 0.300000 -0.760217
v -1.000000 0.100000 -0.800000
v -0.941421 0.241421 -0.788348
v -0.788348 0.300000 -0.788348
v -0.941421 0.100000 -0.941421
v -0.896587 0.241421 -0.896587
v -0.800000 0.300000 0.760217
v -1.000000 0.100000 0.800000
v -0.941421 0.241421 0.788348
v -0.760217 0.300000 0.800000
v -0.800000 0.100000 1.000000
v -0.788348 0.241421 0.941421
v -0.788348 0.300000 0.788348
v -0.941421 0.100000 0.941421
v -0.896587 0.241421 0.896587
vn -0.0000 -1.0000 -0.0000
vn 0.9239 -0.0000 0.3827
vn -0.0000 -0.0000 1.0000
vn 1.0000 -0.0000 -0.0000
vn -0.0000 1.0000 -0.0000
vn 0.3827 -0.0000 -0.9239
vn -0.0000 -0.0000 -1.0000
vn 0.9239 -0.0000 -0.3827
vn -0.9239 -0.0000 -0.3827
vn -1.0000 -0.0000 -0.0000
vn -0.3827 -0.0000 -0.9239
vn -0.3827 -0.0000 0.9239
vn -0.9239 -0.0000 0.3827
vn 0.1464 0.9239 0.3536
vn 0.3536 0.3827 0.8536
vn 0.3536 0.9239 0.1464
vn 0.8536 0.3827 0.3536
vn 0.3536 0.9239 -0.1464
vn 0.8536 0.3827 -0.3536
vn 0.1464 0.9239 -0.3536
vn 0.3536 0.3827 -0.8536
vn 0.3827 0.9239 -0.0000
vn 0.9239 0.3827 -0.0000
vn -0.1464 0.9239 -0.3536
vn -0.3536 0.3827 -0.8536
vn -0.3536 0.9239 -0.1464
vn -0.8536 0.3827 -0.3536
vn -0.0000 0.9239 -0.3827
vn -0.0000 0.3827 -0.9239
vn -0.1464 0.9239 0.3536
vn -0.3536 0.3827 0.8536
vn -0.3536 0.9239 0.1464
vn -0.8536 0.3827 0.3536
vn -0.3827 0.9239 -0.0000
vn -0.9239 0.3827 -0.0000
vn -0.0000 0.9239 0.3827
vn -0.0000 0.3827 0.9239
vn 0.3827 -0.0000 0.9239
vt 0.125000 0.525000
vt 0.132322 0.507322
vt 0.150000 0.500000
vt 0.350000 0.500000
vt 0.367678 0.507322
vt 0.375000 0.525000
vt 0.375000 0.725000
vt 0.367678 0.742678
vt 0.350000 0.750000
vt 0.150000 0.750000
vt 0.132322 0.742678
vt 0.125000 0.725000
vt 0.541667 0.750000
vt 0.375000 0.750000
vt 0.375000 0.725000
vt 0.541667 0.725000
vt 0.375000 0.775000
vt 0.541667 0.775000
vt 0.541667 0.975000
vt 0.375000 0.975000
vt 0.541667 0.525000
vt 0.541667 0.725000
vt 0.650000 0.529973
vt 0.651457 0.526457
vt 0.654973 0.525000
vt 0.845027 0.525000
vt 0.848543 0.526457
vt 0.850000 0.529973
vt 0.850000 0.720027
vt 0.848543 0.723544
vt 0.845027 0.725000
vt 0.654973 0.725000
vt 0.651457 0.723543
vt 0.650000 0.720027
vt 0.541667 0.500000
vt 0.375000 0.500000
vt 0.375000 0.475000
vt 0.541667 0.475000
vt 0.375000 0.275000
vt 0.541667 0.275000
vt 0.541667 0.475000
vt 0.541667 0.525000
vt 0.541667 0.500000
vt 0.541667 0.250000
vt 0.375000 0.250000
vt 0.375000 0.225000
vt 0.541667 0.225000
vt 0.375000 0.025000
vt 0.541667 0.025000
vt 0.541667 0.225000
vt 0.541667 0.275000
vt 0.541667 0.250000
vt 0.541667 0.975000
vt 0.541667 1.000000
vt 0.375000 1.000000
vt 0.375000 0.000000
vt 0.541667 0.000000
vt 0.541667 0.025000
vt 0.648654 0.749443
vt 0.635124 0.743838
vt 0.625000 0.753963
vt 0.625000 0.773097
vt 0.541667 0.775000
vt 0.541667 0.750000
vt 0.631162 0.739875
vt 0.625557 0.726346
vt 0.625000 0.726903
vt 0.625000 0.746037
vt 0.625557 0.523654
vt 0.631162 0.510124
vt 0.625000 0.503963
vt 0.625000 0.523097
vt 0.635125 0.506162
vt 0.648654 0.500557
vt 0.625000 0.476903
vt 0.625000 0.496037
vt 0.625000 0.723543
vt 0.625000 0.526456
vt 0.851346 0.500557
vt 0.864876 0.506162
vt 0.625000 0.253963
vt 0.625000 0.273097
vt 0.868838 0.510125
vt 0.874443 0.523654
vt 0.625000 0.226903
vt 0.625000 0.246037
vt 0.651456 0.500000
vt 0.848544 0.500000
vt 0.625000 0.276457
vt 0.625000 0.473543
vt 0.864875 0.743838
vt 0.851346 0.749443
vt 0.625000 0.976903
vt 0.625000 0.996037
vt 0.874443 0.726346
vt 0.868838 0.739876
vt 0.625000 0.003963
vt 0.625000 0.023097
vt 0.875000 0.526456
vt 0.875000 0.723544
vt 0.625000 0.026457
vt 0.625000 0.223543
vt 0.848544 0.750000
vt 0.651457 0.750000
vt 0.625000 0.776456
vt 0.625000 0.973544
s 0
usemtl Material
f 7/1/1 9/2/1 8/3/1 4/4/1 6/5/1 5/6/1 1/7/1 3/8/1 2/9/1 10/10/1 12/11/1 11/12/1
f 20/13/2 3/14/2 1/15/2 17/16/2
f 2/17/3 14/18/3 44/19/3 10/20/3
f 5/6/4 23/21/4 17/22/4 1/15/4
f 22/23/5 28/24/5 25/25/5 31/26/5 37/27/5 34/28/5 40/29/5 46/30/5 43/31/5 13/32/5 19/33/5 16/34/5
f 29/35/6 6/36/6 4/37/6 26/38/6
f 8/39/7 32/40/7 26/41/7 4/37/7
f 23/42/8 5/6/8 6/36/8 29/43/8
f 38/44/9 9/45/9 7/46/9 35/47/9
f 11/48/10 41/49/10 35/50/10 7/46/10
f 32/51/11 8/39/11 9/45/11 38/52/11
f 10/20/12 44/53/12 47/54/12 12/55/12
f 12/56/13 47/57/13 41/58/13 11/48/13
f 19/33/14 13/32/14 15/59/14 21/60/14
f 21/61/15 15/62/15 14/63/15 20/64/15
f 16/34/16 19/33/16 21/65/16 18/66/16
f 18/67/17 21/68/17 20/13/17 17/16/17
f 28/24/18 22/23/18 24/69/18 30/70/18
f 30/71/19 24/72/19 23/42/19 29/43/19
f 25/25/20 28/24/20 30/73/20 27/74/20
f 27/75/21 30/76/21 29/35/21 26/38/21
f 22/23/22 16/34/22 18/77/22 24/78/22
f 24/78/23 18/77/23 17/22/23 23/21/23
f 37/27/24 31/26/24 33/79/24 39/80/24
f 39/81/25 33/82/25 32/51/25 38/52/25
f 34/28/26 37/27/26 39/83/26 36/84/26
f 36/85/27 39/86/27 38/44/27 35/47/27
f 31/26/28 25/25/28 27/87/28 33/88/28
f 33/89/29 27/90/29 26/41/29 32/40/29
f 43/31/30 46/30/30 48/91/30 45/92/30
f 45/93/31 48/94/31 47/54/31 44/53/31
f 46/30/32 40/29/32 42/95/32 48/96/32
f 48/97/33 42/98/33 41/58/33 47/57/33
f 40/29/34 34/28/34 36/99/34 42/100/34
f 42/101/35 36/102/35 35/50/35 41/49/35
f 13/32/36 43/31/36 45/103/36 15/104/36
f 15/105/37 45/106/37 44/19/37 14/18/37
f 14/63/38 2/17/38 3/14/38 20/64/38
