# Blender 4.3.2
# www.blender.org
mtllib phillips screw.mtl
o Cylinder
v 0.000000 1.600000 -1.500000
v 0.000000 1.805020 0.000000
v 0.000000 2.400000 -1.500000
v -0.300000 2.105020 -0.300000
v 0.292635 1.600000 -1.471178
v 0.000000 2.305020 -1.000000
v 0.292635 2.400000 -1.471178
v 0.574025 1.600000 -1.385819
v 0.574025 2.400000 -1.385819
v 0.833355 1.600000 -1.247204
v -1.000000 2.305020 0.000000
v 0.833355 2.400000 -1.247204
v 1.060660 1.600000 -1.060660
v 1.060660 2.400000 -1.060660
v 1.247204 1.600000 -0.833355
v 0.000000 2.305020 1.000000
v 1.247204 2.400000 -0.833355
v -0.300000 2.105020 0.300000
v 1.385819 1.600000 -0.574025
v 1.385819 2.400000 -0.574025
v 1.471178 1.600000 -0.292635
v 1.471178 2.400000 -0.292635
v 1.500000 1.600000 0.000000
v 1.500000 2.400000 0.000000
v 1.471178 1.600000 0.292635
v 1.471178 2.400000 0.292635
v 1.385819 1.600000 0.574025
v 1.385819 2.400000 0.574025
v 1.247204 1.600000 0.833355
v 1.247204 2.400000 0.833355
v 1.060660 1.600000 1.060660
v 1.060660 2.400000 1.060660
v 1.000000 2.305020 0.000000
v 0.833355 1.600000 1.247204
v 0.833355 2.400000 1.247204
v 0.300000 2.105020 0.300000
v 0.300000 2.105020 -0.300000
v 0.574025 1.600000 1.385819
v 0.574025 2.400000 1.385819
v 0.292635 1.600000 1.471178
v 0.292635 2.400000 1.471178
v 0.000000 1.600000 1.500000
v 0.000000 -2.250000 0.000000
v 0.000000 2.400000 1.500000
v -0.292635 1.600000 1.471178
v -0.292635 2.400000 1.471178
v -0.574025 1.600000 1.385819
v -0.574025 2.400000 1.385819
v -0.833355 1.600000 1.247204
v -0.833355 2.400000 1.247204
v -1.060660 1.600000 1.060660
v -1.060660 2.400000 1.060660
v -1.247204 1.600000 0.833355
v -1.247204 2.400000 0.833355
v -1.385819 1.600000 0.574025
v -1.385819 2.400000 0.574025
v -1.471178 1.600000 0.292635
v -1.471178 2.400000 0.292635
v -1.500000 1.600000 0.000000
v -1.500000 2.400000 0.000000
v -1.471178 1.600000 -0.292635
v -1.471178 2.400000 -0.292635
v -1.385819 1.600000 -0.574025
v -1.385819 2.400000 -0.574025
v -1.247204 1.600000 -0.833355
v -1.247204 2.400000 -0.833355
v -1.060660 1.600000 -1.060660
v -1.060660 2.400000 -1.060660
v -0.833355 1.600000 -1.247204
v -0.833355 2.400000 -1.247204
v -0.574025 1.600000 -1.385819
v -0.574025 2.400000 -1.385819
v -0.292635 1.600000 -1.471178
v -0.292635 2.400000 -1.471178
v 0.125183 1.600000 -0.629337
v 0.000000 1.600000 -0.641667
v -0.125183 1.600000 -0.629337
v 0.356491 1.600000 0.533526
v 0.245555 1.600000 0.592823
v 0.125183 1.600000 0.629337
v 0.356491 1.600000 -0.533526
v 0.245555 1.600000 -0.592823
v 0.629337 1.600000 -0.125183
v 0.641667 1.600000 0.000000
v 0.629337 1.600000 0.125183
v 0.592823 1.600000 -0.245555
v 0.592823 1.600000 0.245555
v 0.533526 1.600000 0.356491
v 0.453727 1.600000 0.453727
v 0.453727 1.600000 -0.453727
v 0.533526 1.600000 -0.356491
v -0.592823 1.600000 0.245555
v -0.629337 1.600000 0.125183
v -0.641667 1.600000 0.000000
v -0.629337 1.600000 -0.125183
v -0.453727 1.600000 0.453727
v -0.533526 1.600000 0.356491
v -0.453727 1.600000 -0.453727
v -0.533526 1.600000 -0.356491
v -0.592823 1.600000 -0.245555
v -0.245555 1.600000 -0.592823
v -0.356491 1.600000 -0.533526
v 0.000000 1.600000 0.641667
v -0.125183 1.600000 0.629337
v -0.245555 1.600000 0.592823
v -0.356491 1.600000 0.533526
v -1.000000 2.400000 -0.189960
v -1.000000 2.400000 0.189960
v -0.889960 2.400000 0.300000
v -0.889960 2.400000 -0.300000
v 0.300000 2.400000 -0.889960
v 0.300000 2.400000 -0.300000
v 0.189960 2.400000 -1.000000
v -0.300000 2.400000 -0.889960
v -0.300000 2.400000 -0.300000
v -0.189960 2.400000 -1.000000
v -0.300000 2.400000 0.889960
v -0.300000 2.400000 0.300000
v -0.189960 2.400000 1.000000
v 0.189960 2.400000 1.000000
v 0.300000 2.400000 0.889960
v 0.300000 2.400000 0.300000
v 0.889960 2.400000 0.300000
v 1.000000 2.400000 -0.189960
v 1.000000 2.400000 0.189960
v 0.889960 2.400000 -0.300000
vn 0.0980 -0.0000 -0.9952
vn 0.2903 -0.0000 -0.9569
vn 0.4714 -0.0000 -0.8819
vn 0.6344 -0.0000 -0.7730
vn 0.7730 -0.0000 -0.6344
vn 0.8819 -0.0000 -0.4714
vn 0.9569 -0.0000 -0.2903
vn 0.9952 -0.0000 -0.0980
vn 0.9952 -0.0000 0.0980
vn 0.9569 -0.0000 0.2903
vn 0.8819 -0.0000 0.4714
vn 0.7730 -0.0000 0.6344
vn 0.6344 -0.0000 0.7730
vn 0.4714 -0.0000 0.8819
vn 0.2903 -0.0000 0.9569
vn 0.0980 -0.0000 0.9952
vn -0.0980 -0.0000 0.9952
vn -0.2903 -0.0000 0.9569
vn -0.4714 -0.0000 0.8819
vn -0.6344 -0.0000 0.7730
vn -0.7730 -0.0000 0.6344
vn -0.8819 -0.0000 0.4714
vn -0.9569 -0.0000 0.2903
vn -0.9952 -0.0000 0.0980
vn -0.9952 -0.0000 -0.0980
vn -0.9569 -0.0000 -0.2903
vn -0.8819 -0.0000 -0.4714
vn -0.7730 -0.0000 -0.6344
vn -0.6344 -0.0000 -0.7730
vn -0.4714 -0.0000 -0.8819
vn -0.0000 1.0000 -0.0000
vn -0.2903 -0.0000 -0.9569
vn -0.0980 -0.0000 -0.9952
vn -0.0000 -1.0000 -0.0000
vn 0.0967 -0.1636 0.9818
vn 0.2864 -0.1636 0.9440
vn 0.4650 -0.1636 0.8700
vn 0.6258 -0.1636 0.7626
vn 0.7626 -0.1636 0.6258
vn 0.8700 -0.1636 0.4650
vn 0.9440 -0.1636 0.2864
vn 0.9818 -0.1636 0.0967
vn 0.9818 -0.1636 -0.0967
vn 0.9440 -0.1636 -0.2864
vn 0.8700 -0.1636 -0.4650
vn 0.7626 -0.1636 -0.6258
vn 0.6258 -0.1636 -0.7626
vn 0.4650 -0.1636 -0.8700
vn 0.2864 -0.1636 -0.9440
vn 0.0967 -0.1636 -0.9818
vn -0.0967 -0.1636 -0.9818
vn -0.2864 -0.1636 -0.9440
vn -0.4650 -0.1636 -0.8700
vn -0.6258 -0.1636 -0.7626
vn -0.7626 -0.1636 -0.6258
vn -0.8700 -0.1636 -0.4650
vn -0.9440 -0.1636 -0.2864
vn -0.9818 -0.1636 -0.0967
vn -0.9818 -0.1636 0.0967
vn -0.9440 -0.1636 0.2864
vn -0.8700 -0.1636 0.4650
vn -0.7626 -0.1636 0.6258
vn -0.6258 -0.1636 0.7626
vn -0.4650 -0.1636 0.8700
vn -0.2864 -0.1636 0.9440
vn -0.0967 -0.1636 0.9818
vn 0.4082 0.8165 0.4082
vn 0.4082 0.8165 -0.4082
vn -0.4082 0.8165 -0.4082
vn -0.4082 0.8165 0.4082
vn -0.0000 -0.0000 -1.0000
vn 1.0000 -0.0000 -0.0000
vn -0.0000 -0.0000 1.0000
vn -1.0000 -0.0000 -0.0000
vt 1.000000 0.500000
vt 1.000000 1.000000
vt 0.968750 1.000000
vt 0.968750 0.500000
vt 0.937500 1.000000
vt 0.937500 0.500000
vt 0.906250 1.000000
vt 0.906250 0.500000
vt 0.875000 1.000000
vt 0.875000 0.500000
vt 0.843750 1.000000
vt 0.843750 0.500000
vt 0.812500 1.000000
vt 0.812500 0.500000
vt 0.781250 1.000000
vt 0.781250 0.500000
vt 0.750000 1.000000
vt 0.750000 0.500000
vt 0.718750 1.000000
vt 0.718750 0.500000
vt 0.687500 1.000000
vt 0.687500 0.500000
vt 0.656250 1.000000
vt 0.656250 0.500000
vt 0.625000 1.000000
vt 0.625000 0.500000
vt 0.593750 1.000000
vt 0.593750 0.500000
vt 0.562500 1.000000
vt 0.562500 0.500000
vt 0.531250 1.000000
vt 0.531250 0.500000
vt 0.500000 1.000000
vt 0.500000 0.500000
vt 0.468750 1.000000
vt 0.468750 0.500000
vt 0.437500 1.000000
vt 0.437500 0.500000
vt 0.406250 1.000000
vt 0.406250 0.500000
vt 0.375000 1.000000
vt 0.375000 0.500000
vt 0.343750 1.000000
vt 0.343750 0.500000
vt 0.312500 1.000000
vt 0.312500 0.500000
vt 0.281250 1.000000
vt 0.281250 0.500000
vt 0.250000 1.000000
vt 0.250000 0.500000
vt 0.218750 1.000000
vt 0.218750 0.500000
vt 0.187500 1.000000
vt 0.187500 0.500000
vt 0.156250 1.000000
vt 0.156250 0.500000
vt 0.125000 1.000000
vt 0.125000 0.500000
vt 0.093750 1.000000
vt 0.093750 0.500000
vt 0.062500 1.000000
vt 0.062500 0.500000
vt 0.383337 0.449553
vt 0.341844 0.471731
vt 0.296822 0.485388
vt 0.250000 0.490000
vt 0.203178 0.485388
vt 0.158156 0.471731
vt 0.116663 0.449553
vt 0.080294 0.419706
vt 0.050447 0.383337
vt 0.028269 0.341844
vt 0.014612 0.296822
vt 0.010000 0.250000
vt 0.014612 0.203178
vt 0.028269 0.158156
vt 0.050447 0.116663
vt 0.080294 0.080294
vt 0.116663 0.050447
vt 0.158156 0.028269
vt 0.203178 0.014612
vt 0.250000 0.010000
vt 0.296822 0.014612
vt 0.341844 0.028269
vt 0.383337 0.050447
vt 0.298000 0.107606
vt 0.280394 0.090000
vt 0.219606 0.090000
vt 0.202000 0.107606
vt 0.202000 0.202000
vt 0.107606 0.202000
vt 0.090000 0.219606
vt 0.090000 0.280394
vt 0.107606 0.298000
vt 0.202000 0.298000
vt 0.202000 0.392394
vt 0.219606 0.410000
vt 0.280394 0.410000
vt 0.298000 0.392394
vt 0.298000 0.298000
vt 0.392394 0.298000
vt 0.449553 0.383337
vt 0.419706 0.419706
vt 0.485388 0.296822
vt 0.471731 0.341844
vt 0.410000 0.280394
vt 0.410000 0.219606
vt 0.392394 0.202000
vt 0.298000 0.202000
vt 0.419706 0.080294
vt 0.449553 0.116663
vt 0.471731 0.158156
vt 0.485388 0.203178
vt 0.490000 0.250000
vt 0.031250 1.000000
vt 0.031250 0.500000
vt 0.000000 1.000000
vt 0.000000 0.500000
vt 0.729971 0.350694
vt 0.703178 0.485388
vt 0.750000 0.490000
vt 0.796822 0.485388
vt 0.841844 0.471731
vt 0.883337 0.449553
vt 0.919706 0.419706
vt 0.949553 0.383337
vt 0.971731 0.341844
vt 0.985388 0.296822
vt 0.990000 0.250000
vt 0.985388 0.203178
vt 0.971731 0.158156
vt 0.949553 0.116663
vt 0.919706 0.080294
vt 0.883337 0.050447
vt 0.841844 0.028269
vt 0.796822 0.014612
vt 0.750000 0.010000
vt 0.703178 0.014612
vt 0.658156 0.028269
vt 0.616663 0.050447
vt 0.580294 0.080294
vt 0.550447 0.116663
vt 0.528269 0.158156
vt 0.514612 0.203178
vt 0.649306 0.229971
vt 0.655148 0.210711
vt 0.664636 0.192961
vt 0.677404 0.177404
vt 0.692961 0.164636
vt 0.710711 0.155148
vt 0.729971 0.149306
vt 0.750000 0.147333
vt 0.770029 0.149306
vt 0.789289 0.155148
vt 0.807039 0.164636
vt 0.822596 0.177404
vt 0.835364 0.192961
vt 0.844852 0.210711
vt 0.850694 0.229971
vt 0.852667 0.250000
vt 0.850694 0.270029
vt 0.844852 0.289289
vt 0.835364 0.307039
vt 0.822596 0.322596
vt 0.807039 0.335364
vt 0.789289 0.344852
vt 0.770029 0.350694
vt 0.750000 0.352667
vt 0.647333 0.250000
vt 0.510000 0.250000
vt 0.514612 0.296822
vt 0.528269 0.341844
vt 0.550447 0.383337
vt 0.580294 0.419706
vt 0.616663 0.449553
vt 0.658156 0.471731
vt 0.710711 0.344852
vt 0.692961 0.335364
vt 0.677404 0.322596
vt 0.664636 0.307038
vt 0.655148 0.289289
vt 0.649306 0.270029
vt 0.250000 0.455333
vt 0.250000 0.250000
vt 0.290059 0.451388
vt 0.328578 0.439703
vt 0.364077 0.420728
vt 0.395193 0.395193
vt 0.420728 0.364077
vt 0.439703 0.328578
vt 0.451388 0.290059
vt 0.455333 0.250000
vt 0.451388 0.209941
vt 0.439703 0.171422
vt 0.420728 0.135923
vt 0.395193 0.104807
vt 0.364077 0.079272
vt 0.328578 0.060297
vt 0.290059 0.048612
vt 0.250000 0.044667
vt 0.209941 0.048612
vt 0.171422 0.060297
vt 0.135923 0.079272
vt 0.104807 0.104807
vt 0.079272 0.135923
vt 0.060297 0.171422
vt 0.048612 0.209941
vt 0.044667 0.250000
vt 0.048612 0.290059
vt 0.060297 0.328578
vt 0.079272 0.364077
vt 0.104807 0.395193
vt 0.135923 0.420728
vt 0.171422 0.439703
vt 0.209941 0.451388
vt 0.450000 0.287992
vt 0.450000 0.250000
vt 0.250000 0.450000
vt 0.287992 0.450000
vt 0.310000 0.427992
vt 0.310000 0.310000
vt 0.427992 0.310000
vt 0.250000 0.050000
vt 0.450000 0.212008
vt 0.427992 0.190000
vt 0.310000 0.190000
vt 0.310000 0.072008
vt 0.287992 0.050000
vt 0.050000 0.250000
vt 0.212008 0.050000
vt 0.190000 0.072008
vt 0.190000 0.190000
vt 0.072008 0.190000
vt 0.050000 0.212008
vt 0.050000 0.287992
vt 0.072008 0.310000
vt 0.190000 0.310000
vt 0.190000 0.427992
vt 0.212008 0.450000
vt 0.531878 0.000000
vt 0.543750 0.000000
vt 0.543750 0.412500
vt 0.506878 0.412500
vt 0.506878 0.250000
vt 0.543750 0.250000
vt 0.543750 0.250000
vt 0.531878 0.500000
vt 0.543750 0.500000
vt 0.506878 1.000000
vt 0.543750 1.000000
vt 0.543750 0.837500
vt 0.543750 0.837500
vt 0.506878 0.837500
vt 0.531878 0.093122
vt 0.543750 0.081250
vt 0.543750 0.331250
vt 0.506878 0.368123
vt 0.543750 0.331250
vt 0.543750 0.331250
vt 0.531878 0.593122
vt 0.543750 0.581250
vt 0.543750 0.581250
vt 0.506878 0.868122
vt 0.543750 0.831250
vt 0.543750 0.831250
s 0
f 1/1/1 3/2/1 7/3/1 5/4/1
f 5/4/2 7/3/2 9/5/2 8/6/2
f 8/6/3 9/5/3 12/7/3 10/8/3
f 10/8/4 12/7/4 14/9/4 13/10/4
f 13/10/5 14/9/5 17/11/5 15/12/5
f 15/12/6 17/11/6 20/13/6 19/14/6
f 19/14/7 20/13/7 22/15/7 21/16/7
f 21/16/8 22/15/8 24/17/8 23/18/8
f 23/18/9 24/17/9 26/19/9 25/20/9
f 25/20/10 26/19/10 28/21/10 27/22/10
f 27/22/11 28/21/11 30/23/11 29/24/11
f 29/24/12 30/23/12 32/25/12 31/26/12
f 31/26/13 32/25/13 35/27/13 34/28/13
f 34/28/14 35/27/14 39/29/14 38/30/14
f 38/30/15 39/29/15 41/31/15 40/32/15
f 40/32/16 41/31/16 44/33/16 42/34/16
f 42/34/17 44/33/17 46/35/17 45/36/17
f 45/36/18 46/35/18 48/37/18 47/38/18
f 47/38/19 48/37/19 50/39/19 49/40/19
f 49/40/20 50/39/20 52/41/20 51/42/20
f 51/42/21 52/41/21 54/43/21 53/44/21
f 53/44/22 54/43/22 56/45/22 55/46/22
f 55/46/23 56/45/23 58/47/23 57/48/23
f 57/48/24 58/47/24 60/49/24 59/50/24
f 59/50/25 60/49/25 62/51/25 61/52/25
f 61/52/26 62/51/26 64/53/26 63/54/26
f 63/54/27 64/53/27 66/55/27 65/56/27
f 65/56/28 66/55/28 68/57/28 67/58/28
f 67/58/29 68/57/29 70/59/29 69/60/29
f 69/60/30 70/59/30 72/61/30 71/62/30
f 12/63/31 9/64/31 7/65/31 3/66/31 74/67/31 72/68/31 70/69/31 68/70/31 66/71/31 64/72/31 62/73/31 60/74/31 58/75/31 56/76/31 54/77/31 52/78/31 50/79/31 48/80/31 46/81/31 44/82/31 41/83/31 39/84/31 35/85/31 121/86/31 120/87/31 119/88/31 117/89/31 118/90/31 109/91/31 108/92/31 107/93/31 110/94/31 115/95/31 114/96/31 116/97/31 113/98/31 111/99/31 112/100/31 126/101/31 17/102/31 14/103/31
f 22/104/31 20/105/31 17/102/31 126/101/31 124/106/31 125/107/31 123/108/31 122/109/31 121/86/31 35/85/31 32/110/31 30/111/31 28/112/31 26/113/31 24/114/31
f 71/62/32 72/61/32 74/115/32 73/116/32
f 73/116/33 74/115/33 3/117/33 1/118/33
f 77/119/34 73/120/34 1/121/34 5/122/34 8/123/34 10/124/34 13/125/34 15/126/34 19/127/34 21/128/34 23/129/34 25/130/34 27/131/34 29/132/34 31/133/34 34/134/34 38/135/34 40/136/34 42/137/34 45/138/34 47/139/34 49/140/34 51/141/34 53/142/34 55/143/34 57/144/34 93/145/34 92/146/34 97/147/34 96/148/34 106/149/34 105/150/34 104/151/34 103/152/34 80/153/34 79/154/34 78/155/34 89/156/34 88/157/34 87/158/34 85/159/34 84/160/34 83/161/34 86/162/34 91/163/34 90/164/34 81/165/34 82/166/34 75/167/34 76/168/34
f 94/169/34 93/145/34 57/144/34 59/170/34 61/171/34 63/172/34 65/173/34 67/174/34 69/175/34 71/176/34 73/120/34 77/119/34 101/177/34 102/178/34 98/179/34 99/180/34 100/181/34 95/182/34
f 103/183/35 43/184/35 80/185/35
f 80/185/36 43/184/36 79/186/36
f 79/186/37 43/184/37 78/187/37
f 78/187/38 43/184/38 89/188/38
f 43/184/39 88/189/39 89/188/39
f 43/184/40 87/190/40 88/189/40
f 43/184/41 85/191/41 87/190/41
f 43/184/42 84/192/42 85/191/42
f 84/192/43 43/184/43 83/193/43
f 83/193/44 43/184/44 86/194/44
f 86/194/45 43/184/45 91/195/45
f 91/195/46 43/184/46 90/196/46
f 81/197/47 90/196/47 43/184/47
f 82/198/48 81/197/48 43/184/48
f 75/199/49 82/198/49 43/184/49
f 76/200/50 75/199/50 43/184/50
f 43/184/51 77/201/51 76/200/51
f 43/184/52 101/202/52 77/201/52
f 43/184/53 102/203/53 101/202/53
f 43/184/54 98/204/54 102/203/54
f 99/205/55 98/204/55 43/184/55
f 100/206/56 99/205/56 43/184/56
f 95/207/57 100/206/57 43/184/57
f 94/208/58 95/207/58 43/184/58
f 43/184/59 93/209/59 94/208/59
f 43/184/60 92/210/60 93/209/60
f 43/184/61 97/211/61 92/210/61
f 43/184/62 96/212/62 97/211/62
f 43/184/63 106/213/63 96/212/63
f 43/184/64 105/214/64 106/213/64
f 43/184/65 104/215/65 105/214/65
f 43/184/66 103/183/66 104/215/66
f 107/216/67 11/217/67 2/184/67 6/218/67 116/219/67 114/220/67 4/221/67 110/222/67
f 16/223/68 2/184/68 11/217/68 108/224/68 109/225/68 18/226/68 117/227/68 119/228/68
f 33/229/69 2/184/69 16/223/69 120/230/69 121/231/69 36/232/69 123/233/69 125/234/69
f 6/218/70 2/184/70 33/229/70 124/235/70 126/236/70 37/237/70 111/238/70 113/239/70
f 16/240/71 119/241/71 120/241/71
f 115/242/72 4/243/72 114/242/72
f 18/244/72 118/245/72 117/246/72
f 6/247/73 113/248/73 116/248/73
f 36/249/74 121/250/74 122/250/74
f 112/251/74 111/252/74 37/253/74
f 11/254/72 107/255/72 108/255/72
f 112/256/73 37/257/73 126/256/73
f 4/257/73 115/258/73 110/259/73
f 33/260/74 125/261/74 124/262/74
f 18/263/71 109/264/71 118/264/71
f 122/264/71 123/265/71 36/263/71
