# Blender 4.3.2
# www.blender.org
mtllib Segment.mtl
o Cube
v 2.000000 0.000000 -1.000000
v 2.000000 -0.250000 -1.000000
v 2.000000 0.000000 1.000000
v 2.000000 -0.250000 1.000000
v -2.000000 0.000000 -1.000000
v -2.000000 -0.250000 -1.000000
v -2.000000 0.000000 1.000000
v -2.000000 -0.250000 1.000000
v -3.000000 -0.250000 0.000000
v 3.000000 0.000000 0.000000
v -3.000000 0.000000 0.000000
v 3.000000 -0.250000 0.000000
v 2.000000 0.000000 -1.000000
v -2.000000 0.000000 1.000000
v 2.000000 0.000000 1.000000
v -2.000000 0.000000 -1.000000
v 3.000000 0.000000 0.000000
v -3.000000 0.000000 0.000000
v -2.000000 0.250000 0.000000
v 2.000000 0.250000 0.000000
vn 0.2357 0.9428 0.2357
vn -0.0000 1.0000 -0.0000
vn -0.0000 -1.0000 -0.0000
vn 0.2357 0.9428 -0.2357
vn -0.7071 -0.0000 0.7071
vn 0.7071 -0.0000 -0.7071
vn -0.0000 -0.0000 -1.0000
vn 0.7071 -0.0000 0.7071
vn -0.7071 -0.0000 -0.7071
vn -0.0000 -0.0000 1.0000
vn -0.0000 0.9701 0.2425
vn -0.2357 0.9428 0.2357
vn -0.2357 0.9428 -0.2357
vn -0.0000 0.9701 -0.2425
vt 0.625000 0.625000
vt 0.666667 0.625000
vt 0.625000 0.750000
vt 0.500000 0.750000
vt 0.625000 1.000000
vt 0.500000 1.000000
vt 0.500000 0.125000
vt 0.625000 0.125000
vt 0.625000 0.250000
vt 0.500000 0.250000
vt 0.125000 0.625000
vt 0.375000 0.625000
vt 0.375000 0.750000
vt 0.125000 0.750000
vt 0.500000 0.625000
vt 0.625000 0.500000
vt 0.500000 0.500000
vt 0.125000 0.500000
vt 0.375000 0.500000
vt 0.500000 0.000000
vt 0.625000 0.000000
vt 0.375000 0.000000
vt 0.375000 0.125000
vt 0.375000 0.250000
vt 0.375000 1.000000
vt 0.833333 0.625000
vt 0.875000 0.750000
vt 0.875000 0.625000
vt 0.875000 0.500000
s 0
usemtl Material
f 10/1/1 20/2/1 3/3/1
f 15/4/2 3/3/2 7/5/2 14/6/2
f 18/7/2 11/8/2 5/9/2 16/10/2
f 9/11/3 12/12/3 4/13/3 8/14/3
f 17/15/2 10/1/2 3/3/2 15/4/2
f 16/10/2 5/9/2 1/16/2 13/17/2
f 13/17/2 1/16/2 10/1/2 17/15/2
f 6/18/3 2/19/3 12/12/3 9/11/3
f 14/20/2 7/21/2 11/8/2 18/7/2
f 1/16/4 20/2/4 10/1/4
f 8/22/5 14/20/5 18/7/5 9/23/5
f 2/19/6 13/17/6 17/15/6 12/12/6
f 6/24/7 16/10/7 13/17/7 2/19/7
f 12/12/8 17/15/8 15/4/8 4/13/8
f 9/23/9 18/7/9 16/10/9 6/24/9
f 4/13/10 15/4/10 14/6/10 8/25/10
f 3/3/11 20/2/11 19/26/11 7/27/11
f 7/27/12 19/26/12 11/28/12
f 19/26/13 5/29/13 11/28/13
f 20/2/14 1/16/14 5/29/14 19/26/14
