# Blender 4.3.2
# www.blender.org
mtllib submit.mtl
o Cube
v 0.675847 0.100000 -0.165000
v 0.700000 -0.100000 -0.235000
v 0.675847 0.100000 0.165000
v 0.700000 -0.100000 0.235000
v -0.675847 0.100000 -0.165000
v -0.700000 -0.100000 -0.235000
v -0.675847 0.100000 0.165000
v -0.700000 -0.100000 0.235000
v -1.000000 -0.100000 0.000000
v 0.886486 0.100000 0.000000
v -0.886486 0.100000 0.000000
v 1.000000 -0.100000 0.000000
v 0.700000 0.000000 0.235000
v -0.700000 0.000000 0.235000
v 1.000000 0.000000 0.000000
v -1.000000 0.000000 0.000000
v -0.700000 0.000000 -0.235000
v 0.700000 0.000000 -0.235000
vn -0.0000 -0.0000 1.0000
vn -0.6167 -0.0000 -0.7872
vn -0.0000 -1.0000 -0.0000
vn 0.6167 -0.0000 0.7872
vn -0.0000 -0.0000 -1.0000
vn 0.6167 -0.0000 -0.7872
vn -0.6167 -0.0000 0.7872
vn -0.0000 1.0000 -0.0000
vn -0.0000 0.5735 0.8192
vn 0.5052 0.5735 0.6449
vn -0.5052 0.5735 -0.6449
vn -0.0000 0.5735 -0.8192
vn 0.5052 0.5735 -0.6449
vn -0.5052 0.5735 0.6449
vt 0.375000 0.750000
vt 0.625000 0.750000
vt 0.625000 1.000000
vt 0.375000 1.000000
vt 0.375000 0.125000
vt 0.625000 0.125000
vt 0.625000 0.250000
vt 0.375000 0.250000
vt 0.125000 0.625000
vt 0.375000 0.625000
vt 0.125000 0.750000
vt 0.625000 0.625000
vt 0.625000 0.500000
vt 0.375000 0.500000
vt 0.125000 0.500000
vt 0.375000 0.000000
vt 0.625000 0.000000
vt 0.871906 0.625000
vt 0.864964 0.712766
vt 0.635036 0.712766
vt 0.628094 0.625000
vt 0.635036 0.537234
vt 0.864964 0.537234
vt 0.875000 0.750000
vt 0.875000 0.500000
vt 0.875000 0.625000
s 0
usemtl Material
f 4/1/1 13/2/1 14/3/1 8/4/1
f 9/5/2 16/6/2 17/7/2 6/8/2
f 9/9/3 12/10/3 4/1/3 8/11/3
f 12/10/4 15/12/4 13/2/4 4/1/4
f 6/8/5 17/7/5 18/13/5 2/14/5
f 2/14/6 18/13/6 15/12/6 12/10/6
f 6/15/3 2/14/3 12/10/3 9/9/3
f 8/16/7 14/17/7 16/6/7 9/5/7
f 11/18/8 7/19/8 3/20/8 10/21/8 1/22/8 5/23/8
f 3/20/9 7/19/9 14/24/9 13/2/9
f 10/21/10 3/20/10 13/2/10 15/12/10
f 11/18/11 5/23/11 17/25/11 16/26/11
f 5/23/12 1/22/12 18/13/12 17/25/12
f 1/22/13 10/21/13 15/12/13 18/13/13
f 7/19/14 11/18/14 16/26/14 14/24/14
