# Blender 4.3.2
# www.blender.org
mtllib thermo lv0.mtl
o Cylinder
v 0.000000 -1.200000 -0.250000
v 0.000000 -1.500000 -0.250000
v 0.000000 -0.850000 -0.250000
v 0.000000 -1.200000 0.250000
v 0.156072 -1.215372 -0.250000
v 0.048773 -0.850000 -0.245196
v 0.156072 -1.215372 0.250000
v 0.306147 -1.260896 -0.250000
v 0.095671 -0.850000 -0.230970
v 0.306147 -1.260896 0.250000
v 0.444456 -1.334824 -0.250000
v 0.138893 -0.850000 -0.207867
v 0.444456 -1.334824 0.250000
v 0.565685 -1.434314 -0.250000
v 0.565685 -1.434314 0.250000
v 0.176777 -0.850000 -0.176777
v 0.665176 -1.555544 -0.250000
v 0.207867 -0.850000 -0.138893
v 0.665176 -1.555544 0.250000
v 0.739104 -1.693853 -0.250000
v 0.230970 -0.850000 -0.095671
v 0.739104 -1.693853 0.250000
v 0.784628 -1.843928 -0.250000
v 0.784628 -1.843928 0.250000
v 0.245196 -0.850000 -0.048773
v 0.800000 -2.000000 -0.250000
v 0.800000 -2.000000 0.250000
v 0.250000 -0.850000 0.000000
v 0.784628 -2.156072 -0.250000
v 0.784628 -2.156072 0.250000
v 0.245196 -0.850000 0.048773
v 0.739104 -2.306147 -0.250000
v 0.230970 -0.850000 0.095671
v 0.739104 -2.306147 0.250000
v 0.665176 -2.444456 -0.250000
v 0.207867 -0.850000 0.138893
v 0.665176 -2.444456 0.250000
v 0.565685 -2.565686 -0.250000
v 0.176777 -0.850000 0.176777
v 0.565685 -2.565686 0.250000
v 0.444456 -2.665176 -0.250000
v 0.138893 -0.850000 0.207867
v 0.444456 -2.665176 0.250000
v 0.306147 -2.739104 -0.250000
v 0.095671 -0.850000 0.230970
v 0.306147 -2.739104 0.250000
v 0.156072 -2.784628 -0.250000
v 0.048773 -0.850000 0.245196
v 0.156072 -2.784628 0.250000
v 0.000000 -1.500000 0.250000
v 0.000000 -2.800000 -0.250000
v 0.000000 -0.850000 0.250000
v 0.000000 -2.800000 0.250000
v -0.156072 -2.784628 -0.250000
v -0.156072 -2.784628 0.250000
v -0.048773 -0.850000 0.245196
v -0.306147 -2.739104 -0.250000
v -0.306147 -2.739104 0.250000
v -0.095671 -0.850000 0.230970
v -0.444456 -2.665176 -0.250000
v -0.444456 -2.665176 0.250000
v -0.138893 -0.850000 0.207867
v -0.565685 -2.565686 -0.250000
v -0.565685 -2.565686 0.250000
v -0.176777 -0.850000 0.176777
v -0.665176 -2.444456 -0.250000
v -0.665176 -2.444456 0.250000
v -0.207867 -0.850000 0.138893
v -0.739104 -2.306147 -0.250000
v -0.230970 -0.850000 0.095671
v -0.739104 -2.306147 0.250000
v -0.784628 -2.156072 -0.250000
v -0.245196 -0.850000 0.048773
v -0.784628 -2.156072 0.250000
v -0.800000 -2.000000 -0.250000
v -0.800000 -2.000000 0.250000
v -0.250000 -0.850000 0.000000
v -0.784628 -1.843928 -0.250000
v -0.784628 -1.843928 0.250000
v -0.245196 -0.850000 -0.048773
v -0.739104 -1.693853 -0.250000
v -0.739104 -1.693853 0.250000
v -0.230970 -0.850000 -0.095671
v -0.665176 -1.555544 -0.250000
v -0.665176 -1.555544 0.250000
v -0.207867 -0.850000 -0.138893
v -0.565685 -1.434314 -0.250000
v -0.565685 -1.434314 0.250000
v -0.176777 -0.850000 -0.176777
v -0.444456 -1.334824 -0.250000
v -0.138893 -0.850000 -0.207867
v -0.444456 -1.334824 0.250000
v -0.306147 -1.260896 -0.250000
v -0.306147 -1.260896 0.250000
v -0.095671 -0.850000 -0.230970
v -0.156072 -1.215372 -0.250000
v -0.156072 -1.215372 0.250000
v -0.048773 -0.850000 -0.245196
v 0.048773 -1.204804 -0.245196
v 0.095671 -1.209423 -0.230970
v 0.138893 -1.213680 -0.207867
v 0.176777 -1.221653 -0.176777
v 0.156072 -1.215372 -0.193768
v 0.207867 -1.231084 -0.138893
v 0.230970 -1.238092 -0.095671
v 0.245196 -1.242407 -0.048773
v 0.250000 -1.243865 0.000000
v 0.245196 -1.242407 0.048773
v 0.230970 -1.238092 0.095671
v 0.207867 -1.231084 0.138893
v 0.176777 -1.221653 0.176777
v 0.156072 -1.215372 0.193768
v 0.138893 -1.213680 0.207867
v 0.095671 -1.209423 0.230970
v 0.048773 -1.204804 0.245196
v -0.048773 -1.204804 0.245196
v -0.095671 -1.209423 0.230970
v -0.138893 -1.213680 0.207867
v -0.176777 -1.221653 0.176777
v -0.156072 -1.215372 0.193768
v -0.207867 -1.231084 0.138893
v -0.230970 -1.238092 0.095671
v -0.245196 -1.242407 0.048773
v -0.250000 -1.243865 0.000000
v -0.245196 -1.242407 -0.048773
v -0.230970 -1.238092 -0.095671
v -0.207867 -1.231084 -0.138893
v -0.176777 -1.221653 -0.176777
v -0.138893 -1.213680 -0.207867
v -0.156072 -1.215372 -0.193768
v -0.095671 -1.209423 -0.230970
v -0.048773 -1.204804 -0.245196
vn 0.0980 -0.0000 -0.9952
vn 0.2903 -0.0000 -0.9569
vn 0.4714 -0.0000 -0.8819
vn 0.6344 -0.0000 -0.7730
vn 0.7730 -0.0000 -0.6344
vn 0.8819 -0.0000 -0.4714
vn 0.9569 -0.0000 -0.2903
vn 0.9952 -0.0000 -0.0980
vn 0.9952 -0.0000 0.0980
vn 0.9569 -0.0000 0.2903
vn 0.8819 -0.0000 0.4714
vn 0.7730 -0.0000 0.6344
vn 0.6344 -0.0000 0.7730
vn 0.4714 -0.0000 0.8819
vn 0.2903 -0.0000 0.9569
vn 0.0980 -0.0000 0.9952
vn -0.0980 -0.0000 0.9952
vn -0.2903 -0.0000 0.9569
vn -0.4714 -0.0000 0.8819
vn -0.6344 -0.0000 0.7730
vn -0.7730 -0.0000 0.6344
vn -0.8819 -0.0000 0.4714
vn -0.9569 -0.0000 0.2903
vn -0.9952 -0.0000 0.0980
vn -0.9952 -0.0000 -0.0980
vn -0.9569 -0.0000 -0.2903
vn -0.8819 -0.0000 -0.4714
vn -0.7730 -0.0000 -0.6344
vn -0.6344 -0.0000 -0.7730
vn -0.4714 -0.0000 -0.8819
vn -0.0000 1.0000 -0.0000
vn -0.2903 -0.0000 -0.9569
vn -0.0980 -0.0000 -0.9952
vn 0.0980 0.9952 -0.0000
vn 0.2903 0.9569 -0.0000
vn 0.4714 0.8819 -0.0000
vn 0.6344 0.7730 -0.0000
vn 0.7730 0.6344 -0.0000
vn 0.8819 0.4714 -0.0000
vn 0.9569 0.2903 -0.0000
vn 0.9952 0.0980 -0.0000
vn 0.9952 -0.0980 -0.0000
vn 0.9569 -0.2903 -0.0000
vn 0.8819 -0.4714 -0.0000
vn 0.7730 -0.6344 -0.0000
vn 0.6344 -0.7730 -0.0000
vn 0.4714 -0.8819 -0.0000
vn 0.2903 -0.9569 -0.0000
vn 0.0980 -0.9952 -0.0000
vn -0.0980 -0.9952 -0.0000
vn -0.2903 -0.9569 -0.0000
vn -0.4714 -0.8819 -0.0000
vn -0.6344 -0.7730 -0.0000
vn -0.7730 -0.6344 -0.0000
vn -0.8819 -0.4714 -0.0000
vn -0.9569 -0.2903 -0.0000
vn -0.9952 -0.0980 -0.0000
vn -0.9952 0.0980 -0.0000
vn -0.9569 0.2903 -0.0000
vn -0.8819 0.4714 -0.0000
vn -0.7730 0.6344 -0.0000
vn -0.6344 0.7730 -0.0000
vn -0.4714 0.8819 -0.0000
vn -0.0000 -0.0000 1.0000
vn -0.2903 0.9569 -0.0000
vn -0.0980 0.9952 -0.0000
vn -0.0000 -0.0000 -1.0000
vt 1.000000 1.000000
vt 0.968750 1.000000
vt 0.968750 0.542171
vt 1.000000 0.500000
vt 0.937500 1.000000
vt 0.937500 0.541511
vt 0.906250 1.000000
vt 0.906250 0.540903
vt 0.875000 1.000000
vt 0.875000 0.539764
vt 0.892079 0.540661
vt 0.843750 1.000000
vt 0.843750 0.538417
vt 0.812500 1.000000
vt 0.812500 0.537415
vt 0.781250 1.000000
vt 0.781250 0.536799
vt 0.750000 1.000000
vt 0.750000 0.536591
vt 0.718750 1.000000
vt 0.718750 0.536799
vt 0.687500 1.000000
vt 0.687500 0.537415
vt 0.656250 1.000000
vt 0.656250 0.538417
vt 0.625000 1.000000
vt 0.625000 0.539764
vt 0.593750 1.000000
vt 0.593750 0.540903
vt 0.607921 0.540661
vt 0.562500 1.000000
vt 0.562500 0.541511
vt 0.531250 1.000000
vt 0.531250 0.542171
vt 0.500000 1.000000
vt 0.500000 0.542857
vt 0.468750 1.000000
vt 0.468750 0.542171
vt 0.437500 1.000000
vt 0.437500 0.541511
vt 0.406250 1.000000
vt 0.406250 0.540903
vt 0.375000 1.000000
vt 0.375000 0.539764
vt 0.392079 0.540661
vt 0.343750 1.000000
vt 0.343750 0.538417
vt 0.312500 1.000000
vt 0.312500 0.537415
vt 0.281250 1.000000
vt 0.281250 0.536799
vt 0.250000 1.000000
vt 0.250000 0.536591
vt 0.218750 1.000000
vt 0.218750 0.536799
vt 0.187500 1.000000
vt 0.187500 0.537415
vt 0.156250 1.000000
vt 0.156250 0.538417
vt 0.125000 1.000000
vt 0.125000 0.539764
vt 0.093750 1.000000
vt 0.093750 0.540903
vt 0.107921 0.540661
vt 0.062500 1.000000
vt 0.062500 0.541511
vt 0.419706 0.419706
vt 0.383337 0.449553
vt 0.341844 0.471731
vt 0.296822 0.485388
vt 0.250000 0.490000
vt 0.203178 0.485388
vt 0.158156 0.471731
vt 0.116663 0.449553
vt 0.080294 0.419706
vt 0.050447 0.383337
vt 0.028269 0.341844
vt 0.014612 0.296822
vt 0.010000 0.250000
vt 0.014612 0.203178
vt 0.028269 0.158156
vt 0.050447 0.116663
vt 0.080294 0.080294
vt 0.116663 0.050447
vt 0.158156 0.028269
vt 0.203178 0.014612
vt 0.250000 0.010000
vt 0.296822 0.014612
vt 0.341844 0.028269
vt 0.383337 0.050447
vt 0.419706 0.080294
vt 0.449553 0.116663
vt 0.471731 0.158156
vt 0.485388 0.203178
vt 0.490000 0.250000
vt 0.485388 0.296822
vt 0.471731 0.341844
vt 0.449553 0.383337
vt 0.031250 1.000000
vt 0.031250 0.542171
vt 0.000000 1.000000
vt 0.000000 0.542857
vt 0.968750 0.943768
vt 0.972190 0.957867
vt 0.980844 0.980969
vt 0.990234 0.995199
vt 0.968750 0.556232
vt 0.968750 0.500000
vt 0.990234 0.504807
vt 0.980844 0.519029
vt 0.972190 0.542133
vt 0.937500 0.500000
vt 0.964439 0.573223
vt 0.957965 0.611107
vt 0.953154 0.654329
vt 0.950192 0.701227
vt 0.949191 0.750000
vt 0.950192 0.798773
vt 0.953154 0.845670
vt 0.957965 0.888892
vt 0.964439 0.926776
vt 0.906250 0.500000
vt 0.875000 0.500000
vt 0.843750 0.500000
vt 0.812500 0.500000
vt 0.781250 0.500000
vt 0.750000 0.500000
vt 0.718750 0.500000
vt 0.687500 0.500000
vt 0.656250 0.500000
vt 0.625000 0.500000
vt 0.593750 0.500000
vt 0.562500 0.500000
vt 0.531250 0.500000
vt 0.500000 0.500000
vt 0.468750 0.500000
vt 0.437500 0.500000
vt 0.406250 0.500000
vt 0.375000 0.500000
vt 0.343750 0.500000
vt 0.312500 0.500000
vt 0.281250 0.500000
vt 0.250000 0.500000
vt 0.218750 0.500000
vt 0.187500 0.500000
vt 0.156250 0.500000
vt 0.125000 0.500000
vt 0.093750 0.500000
vt 0.062500 0.500000
vt 0.116663 0.449553
vt 0.080294 0.419706
vt 0.050447 0.383337
vt 0.028269 0.341844
vt 0.014612 0.296822
vt 0.383337 0.050447
vt 0.419706 0.080294
vt 0.449553 0.116663
vt 0.031250 0.556232
vt 0.031250 0.500000
vt 0.031250 0.943768
vt 0.035561 0.926776
vt 0.042035 0.888892
vt 0.046846 0.845670
vt 0.049808 0.798773
vt 0.050809 0.750000
vt 0.049808 0.701227
vt 0.046846 0.654329
vt 0.042035 0.611107
vt 0.035561 0.573223
vt 0.009766 0.995199
vt 0.019156 0.980969
vt 0.027810 0.957867
vt 0.000000 0.500000
vt 0.027810 0.542133
vt 0.019156 0.519029
vt 0.009766 0.504807
vt 0.796822 0.485388
vt 0.841844 0.471731
vt 0.883337 0.449553
vt 0.919706 0.419706
vt 0.949553 0.383337
vt 0.971731 0.341844
vt 0.985388 0.296822
vt 0.990000 0.250000
vt 0.750000 0.490000
vt 0.703178 0.485388
vt 0.658156 0.028269
vt 0.616663 0.050447
vt 0.580294 0.080294
vt 0.550447 0.116663
vt 0.528269 0.158156
vt 0.514612 0.203178
vt 0.510000 0.250000
s 0
f 3/1/1 6/2/1 99/3/1 1/4/1
f 9/5/2 100/6/2 99/3/2 6/2/2
f 12/7/3 101/8/3 100/6/3 9/5/3
f 16/9/4 102/10/4 103/11/4 101/8/4 12/7/4
f 102/10/5 16/9/5 18/12/5 104/13/5
f 104/13/6 18/12/6 21/14/6 105/15/6
f 105/15/7 21/14/7 25/16/7 106/17/7
f 106/17/8 25/16/8 28/18/8 107/19/8
f 107/19/9 28/18/9 31/20/9 108/21/9
f 108/21/10 31/20/10 33/22/10 109/23/10
f 109/23/11 33/22/11 36/24/11 110/25/11
f 110/25/12 36/24/12 39/26/12 111/27/12
f 111/27/13 39/26/13 42/28/13 113/29/13 112/30/13
f 113/29/14 42/28/14 45/31/14 114/32/14
f 114/32/15 45/31/15 48/33/15 115/34/15
f 115/34/16 48/33/16 52/35/16 4/36/16
f 4/36/17 52/35/17 56/37/17 116/38/17
f 116/38/18 56/37/18 59/39/18 117/40/18
f 117/40/19 59/39/19 62/41/19 118/42/19
f 118/42/20 62/41/20 65/43/20 119/44/20 120/45/20
f 65/43/21 68/46/21 121/47/21 119/44/21
f 70/48/22 122/49/22 121/47/22 68/46/22
f 73/50/23 123/51/23 122/49/23 70/48/23
f 77/52/24 124/53/24 123/51/24 73/50/24
f 124/53/25 77/52/25 80/54/25 125/55/25
f 125/55/26 80/54/26 83/56/26 126/57/26
f 126/57/27 83/56/27 86/58/27 127/59/27
f 127/59/28 86/58/28 89/60/28 128/61/28
f 128/61/29 89/60/29 91/62/29 129/63/29 130/64/29
f 129/63/30 91/62/30 95/65/30 131/66/30
f 16/67/31 12/68/31 9/69/31 6/70/31 3/71/31 98/72/31 95/73/31 91/74/31 89/75/31 86/76/31 83/77/31 80/78/31 77/79/31 73/80/31 70/81/31 68/82/31 65/83/31 62/84/31 59/85/31 56/86/31 52/87/31 48/88/31 45/89/31 42/90/31 39/91/31 36/92/31 33/93/31 31/94/31 28/95/31 25/96/31 21/97/31 18/98/31
f 131/66/32 95/65/32 98/99/32 132/100/32
f 132/100/33 98/99/33 3/101/33 1/102/33
f 4/1/34 7/2/34 112/103/34 113/104/34 114/105/34 115/106/34
f 103/107/34 5/108/34 1/4/34 99/109/34 100/110/34 101/111/34
f 112/103/35 7/2/35 10/5/35 8/112/35 5/108/35 103/107/35 102/113/35 104/114/35 105/115/35 106/116/35 107/117/35 108/118/35 109/119/35 110/120/35 111/121/35
f 8/112/36 10/5/36 13/7/36 11/122/36
f 11/122/37 13/7/37 15/9/37 14/123/37
f 14/123/38 15/9/38 19/12/38 17/124/38
f 17/124/39 19/12/39 22/14/39 20/125/39
f 20/125/40 22/14/40 24/16/40 23/126/40
f 23/126/41 24/16/41 27/18/41 26/127/41
f 26/127/42 27/18/42 30/20/42 29/128/42
f 29/128/43 30/20/43 34/22/43 32/129/43
f 32/129/44 34/22/44 37/24/44 35/130/44
f 35/130/45 37/24/45 40/26/45 38/131/45
f 38/131/46 40/26/46 43/28/46 41/132/46
f 41/132/47 43/28/47 46/31/47 44/133/47
f 44/133/48 46/31/48 49/33/48 47/134/48
f 47/134/49 49/33/49 53/35/49 51/135/49
f 51/135/50 53/35/50 55/37/50 54/136/50
f 54/136/51 55/37/51 58/39/51 57/137/51
f 57/137/52 58/39/52 61/41/52 60/138/52
f 60/138/53 61/41/53 64/43/53 63/139/53
f 63/139/54 64/43/54 67/46/54 66/140/54
f 66/140/55 67/46/55 71/48/55 69/141/55
f 69/141/56 71/48/56 74/50/56 72/142/56
f 72/142/57 74/50/57 76/52/57 75/143/57
f 75/143/58 76/52/58 79/54/58 78/144/58
f 78/144/59 79/54/59 82/56/59 81/145/59
f 81/145/60 82/56/60 85/58/60 84/146/60
f 84/146/61 85/58/61 88/60/61 87/147/61
f 87/147/62 88/60/62 92/62/62 90/148/62
f 90/148/63 92/62/63 94/65/63 93/149/63
f 94/73/64 92/150/64 88/151/64 85/152/64 82/153/64 79/154/64 76/79/64 74/154/64 71/153/64 67/152/64 64/151/64 61/150/64 58/73/64 55/72/64 53/71/64 49/70/64 46/69/64 43/155/64 40/156/64 37/157/64 34/93/64 30/94/64 27/95/64 24/94/64 22/93/64 19/157/64 15/156/64 13/155/64 10/69/64 50/71/64 4/71/64 97/72/64
f 50/71/64 10/69/64 7/70/64 4/71/64
f 130/158/65 96/159/65 93/149/65 94/65/65 97/99/65 120/160/65 119/161/65 121/162/65 122/163/65 123/164/65 124/165/65 125/166/65 126/167/65 127/168/65 128/169/65
f 120/160/66 97/99/66 4/101/66 116/170/66 117/171/66 118/172/66
f 1/173/66 96/159/66 130/158/66 129/174/66 131/175/66 132/176/66
f 5/177/67 8/178/67 11/179/67 14/180/67 17/181/67 20/182/67 23/183/67 26/184/67 29/183/67 32/182/67 35/181/67 38/180/67 41/179/67 44/178/67 47/177/67 51/185/67 54/186/67 57/187/67 60/188/67 63/189/67 66/190/67 69/191/67 72/192/67 75/193/67 78/192/67 81/191/67 84/190/67 87/189/67 90/188/67 93/187/67 96/186/67 2/185/67 1/185/67
f 96/186/67 1/185/67 2/185/67
