# Blender 4.3.2
# www.blender.org
mtllib thermo out.mtl
o Cube
v -0.800000 -3.000000 0.200000
v 0.000000 -1.250000 -0.250000
v -0.800000 -2.800000 0.400000
v 0.000000 -1.500000 -0.250000
v -1.000000 -2.800000 0.200000
v 0.000000 2.500000 -0.250000
v 0.000000 -1.250000 0.250000
v -0.800000 -2.941422 0.341421
v 0.146318 -1.264411 -0.250000
v -0.915470 -2.915470 0.315470
v -0.941421 -2.800000 0.341421
v 0.048773 2.500000 -0.245196
v -0.941421 -2.941422 0.200000
v 0.146318 -1.264411 0.250000
v -0.800000 2.800000 0.400000
v 0.287013 -1.307090 -0.250000
v 0.095671 2.500000 -0.230970
v -0.800000 3.000000 0.200000
v 0.287013 -1.307090 0.250000
v -1.000000 2.800000 0.200000
v 0.416678 -1.376398 -0.250000
v -0.800000 2.941422 0.341421
v 0.138893 2.500000 -0.207867
v -0.915470 2.915470 0.315470
v 0.416678 -1.376398 0.250000
v -0.941421 2.941422 0.200000
v 0.530330 -1.469670 -0.250000
v -0.941421 2.800000 0.341421
v -0.800000 -3.000000 -0.200000
v 0.530330 -1.469670 0.250000
v -1.000000 -2.800000 -0.200000
v 0.176777 2.500000 -0.176777
v -0.800000 -2.800000 -0.400000
v 0.623602 -1.583322 -0.250000
v 0.207867 2.500000 -0.138893
v -0.941421 -2.941422 -0.200000
v -0.915470 -2.915470 -0.315470
v 0.623602 -1.583322 0.250000
v -0.941421 -2.800000 -0.341421
v 0.692910 -1.712987 -0.250000
v -0.800000 -2.941422 -0.341421
v 0.230970 2.500000 -0.095671
v -0.800000 3.000000 -0.200000
v 0.692910 -1.712987 0.250000
v 0.735589 -1.853682 -0.250000
v -0.800000 2.800000 -0.400000
v 0.735589 -1.853682 0.250000
v -1.000000 2.800000 -0.200000
v -0.800000 2.941422 -0.341421
v 0.245196 2.500000 -0.048773
v 0.750000 -2.000000 -0.250000
v -0.915470 2.915470 -0.315470
v 0.750000 -2.000000 0.250000
v -0.941421 2.800000 -0.341421
v -0.941421 2.941422 -0.200000
v 0.250000 2.500000 0.000000
v 0.800000 -3.000000 0.200000
v 0.735589 -2.146318 -0.250000
v 0.735589 -2.146318 0.250000
v 1.000000 -2.800000 0.200000
v 0.800000 -2.800000 0.400000
v 0.245196 2.500000 0.048773
v 0.692910 -2.287013 -0.250000
v 0.941421 -2.941422 0.200000
v 0.230970 2.500000 0.095671
v 0.915470 -2.915470 0.315470
v 0.692910 -2.287013 0.250000
v 0.941421 -2.800000 0.341421
v 0.623602 -2.416678 -0.250000
v 0.800000 -2.941422 0.341421
v 0.207867 2.500000 0.138893
v 0.800000 3.000000 0.200000
v 0.800000 2.800000 0.400000
v 0.623602 -2.416678 0.250000
v 1.000000 2.800000 0.200000
v 0.530330 -2.530330 -0.250000
v 0.800000 2.941422 0.341421
v 0.176777 2.500000 0.176777
v 0.915470 2.915470 0.315470
v 0.530330 -2.530330 0.250000
v 0.941421 2.800000 0.341421
v 0.416678 -2.623602 -0.250000
v 0.941421 2.941422 0.200000
v 0.138893 2.500000 0.207867
v 0.800000 -3.000000 -0.200000
v 0.416678 -2.623602 0.250000
v 0.287013 -2.692910 -0.250000
v 0.800000 -2.800000 -0.400000
v 1.000000 -2.800000 -0.200000
v 0.095671 2.500000 0.230970
v 0.287013 -2.692910 0.250000
v 0.800000 -2.941422 -0.341421
v 0.146318 -2.735589 -0.250000
v 0.915470 -2.915470 -0.315470
v 0.048773 2.500000 0.245196
v 0.941421 -2.800000 -0.341421
v 0.146318 -2.735589 0.250000
v 0.941421 -2.941422 -0.200000
v 0.800000 3.000000 -0.200000
v 0.000000 -1.500000 0.250000
v 1.000000 2.800000 -0.200000
v 0.000000 -2.750000 -0.250000
v 0.800000 2.800000 -0.400000
v 0.000000 2.500000 0.250000
v 0.000000 -2.750000 0.250000
v 0.941421 2.941422 -0.200000
v 0.915470 2.915470 -0.315470
v -0.146318 -2.735589 -0.250000
v -0.146318 -2.735589 0.250000
v 0.941421 2.800000 -0.341421
v -0.048773 2.500000 0.245196
v 0.800000 2.941422 -0.341421
v -0.287013 -2.692910 -0.250000
v -0.287013 -2.692910 0.250000
v -0.095671 2.500000 0.230970
v -0.416678 -2.623602 -0.250000
v -0.416678 -2.623602 0.250000
v -0.138893 2.500000 0.207867
v -0.530330 -2.530330 -0.250000
v -0.530330 -2.530330 0.250000
v -0.176777 2.500000 0.176777
v -0.623602 -2.416678 -0.250000
v -0.623602 -2.416678 0.250000
v -0.207867 2.500000 0.138893
v -0.692910 -2.287013 -0.250000
v -0.230970 2.500000 0.095671
v -0.692910 -2.287013 0.250000
v -0.735589 -2.146318 -0.250000
v -0.245196 2.500000 0.048773
v -0.735589 -2.146318 0.250000
v -0.750000 -2.000000 -0.250000
v -0.750000 -2.000000 0.250000
v -0.250000 2.500000 0.000000
v -0.735589 -1.853682 -0.250000
v -0.735589 -1.853682 0.250000
v -0.245196 2.500000 -0.048773
v -0.692910 -1.712987 -0.250000
v -0.692910 -1.712987 0.250000
v -0.230970 2.500000 -0.095671
v -0.623602 -1.583322 -0.250000
v -0.623602 -1.583322 0.250000
v -0.207867 2.500000 -0.138893
v -0.530330 -1.469670 -0.250000
v -0.530330 -1.469670 0.250000
v -0.176777 2.500000 -0.176777
v -0.416678 -1.376398 -0.250000
v -0.138893 2.500000 -0.207867
v -0.416678 -1.376398 0.250000
v -0.287013 -1.307090 -0.250000
v -0.287013 -1.307090 0.250000
v -0.095671 2.500000 -0.230970
v -0.146318 -1.264411 -0.250000
v -0.146318 -1.264411 0.250000
v -0.048773 2.500000 -0.245196
v 0.048773 -1.254804 -0.245196
v 0.095671 -1.259423 -0.230970
v 0.138893 -1.263680 -0.207867
v 0.176777 -1.273651 -0.176777
v 0.146318 -1.264411 -0.201774
v 0.207867 -1.283082 -0.138893
v 0.230970 -1.290090 -0.095671
v 0.245196 -1.294406 -0.048773
v 0.250000 -1.295863 0.000000
v 0.245196 -1.294406 0.048773
v 0.230970 -1.290090 0.095671
v 0.207867 -1.283082 0.138893
v 0.176777 -1.273651 0.176777
v 0.138893 -1.263680 0.207867
v 0.146318 -1.264411 0.201774
v 0.095671 -1.259423 0.230970
v 0.048773 -1.254804 0.245196
v -0.048773 -1.254804 0.245196
v -0.095671 -1.259423 0.230970
v -0.138893 -1.263680 0.207867
v -0.146318 -1.264411 0.201774
v -0.176777 -1.273651 0.176777
v -0.207867 -1.283082 0.138893
v -0.230970 -1.290090 0.095671
v -0.245196 -1.294406 0.048773
v -0.250000 -1.295863 0.000000
v -0.245196 -1.294406 -0.048773
v -0.230970 -1.290090 -0.095671
v -0.207867 -1.283082 -0.138893
v -0.176777 -1.273651 -0.176777
v -0.138893 -1.263680 -0.207867
v -0.146318 -1.264411 -0.201774
v -0.095671 -1.259423 -0.230970
v -0.048773 -1.254804 -0.245196
vn -0.0000 -0.0000 1.0000
vn 1.0000 -0.0000 -0.0000
vn -0.0000 1.0000 -0.0000
vn -1.0000 -0.0000 -0.0000
vn -0.0000 -0.0000 -1.0000
vn -0.3251 -0.8881 0.3251
vn -0.3251 -0.3251 0.8881
vn -0.8881 -0.3251 0.3251
vn -0.3251 0.3251 0.8881
vn -0.3251 0.8881 0.3251
vn -0.8881 0.3251 0.3251
vn -0.3251 -0.8881 -0.3251
vn -0.8881 -0.3251 -0.3251
vn -0.3251 -0.3251 -0.8881
vn -0.3251 0.8881 -0.3251
vn -0.3251 0.3251 -0.8881
vn -0.8881 0.3251 -0.3251
vn 0.3251 -0.8881 0.3251
vn 0.8881 -0.3251 0.3251
vn 0.3251 -0.3251 0.8881
vn 0.3251 0.8881 0.3251
vn 0.3251 0.3251 0.8881
vn 0.8881 0.3251 0.3251
vn 0.3251 -0.8881 -0.3251
vn 0.3251 -0.3251 -0.8881
vn 0.8881 -0.3251 -0.3251
vn 0.3251 0.8881 -0.3251
vn 0.8881 0.3251 -0.3251
vn 0.3251 0.3251 -0.8881
vn -0.3827 -0.9239 -0.0000
vn -0.9239 -0.3827 -0.0000
vn -0.3827 -0.0000 0.9239
vn -0.9239 -0.0000 0.3827
vn -0.3827 0.9239 -0.0000
vn -0.9239 0.3827 -0.0000
vn -0.3827 -0.0000 -0.9239
vn -0.9239 -0.0000 -0.3827
vn -0.0000 -0.9239 -0.3827
vn -0.0000 -0.3827 -0.9239
vn -0.0000 0.9239 -0.3827
vn -0.0000 0.3827 -0.9239
vn 0.9239 -0.0000 -0.3827
vn 0.3827 -0.0000 -0.9239
vn 0.3827 -0.9239 -0.0000
vn 0.9239 -0.3827 -0.0000
vn 0.3827 0.9239 -0.0000
vn 0.9239 0.3827 -0.0000
vn 0.3827 -0.0000 0.9239
vn 0.9239 -0.0000 0.3827
vn -0.0000 -0.9239 0.3827
vn -0.0000 -0.3827 0.9239
vn -0.0000 0.9239 0.3827
vn -0.0000 0.3827 0.9239
vn -0.0000 -1.0000 -0.0000
vn -0.0980 -0.0000 0.9952
vn -0.2903 -0.0000 0.9569
vn -0.4714 -0.0000 0.8819
vn -0.6344 -0.0000 0.7730
vn -0.7730 -0.0000 0.6344
vn -0.8819 -0.0000 0.4714
vn -0.9569 -0.0000 0.2903
vn -0.9952 -0.0000 0.0980
vn -0.9952 -0.0000 -0.0980
vn -0.9569 -0.0000 -0.2903
vn -0.8819 -0.0000 -0.4714
vn -0.7730 -0.0000 -0.6344
vn -0.6344 -0.0000 -0.7730
vn -0.4714 -0.0000 -0.8819
vn -0.2903 -0.0000 -0.9569
vn -0.0980 -0.0000 -0.9952
vn 0.0980 -0.0000 -0.9952
vn 0.2903 -0.0000 -0.9569
vn 0.4714 -0.0000 -0.8819
vn 0.6344 -0.0000 -0.7730
vn 0.7730 -0.0000 -0.6344
vn 0.8819 -0.0000 -0.4714
vn 0.9569 -0.0000 -0.2903
vn 0.9952 -0.0000 -0.0980
vn 0.9952 -0.0000 0.0980
vn 0.9569 -0.0000 0.2903
vn 0.8819 -0.0000 0.4714
vn 0.7730 -0.0000 0.6344
vn 0.6344 -0.0000 0.7730
vn 0.4714 -0.0000 0.8819
vn 0.2903 -0.0000 0.9569
vn 0.0980 -0.0000 0.9952
vn -0.0980 -0.9952 -0.0000
vn -0.2903 -0.9569 -0.0000
vn -0.4714 -0.8819 -0.0000
vn -0.6344 -0.7730 -0.0000
vn -0.7730 -0.6344 -0.0000
vn -0.8819 -0.4714 -0.0000
vn -0.9569 -0.2903 -0.0000
vn -0.9952 -0.0980 -0.0000
vn -0.9952 0.0980 -0.0000
vn -0.9569 0.2903 -0.0000
vn -0.8819 0.4714 -0.0000
vn -0.7730 0.6344 -0.0000
vn -0.6344 0.7730 -0.0000
vn -0.4714 0.8819 -0.0000
vn -0.2903 0.9569 -0.0000
vn -0.0980 0.9952 -0.0000
vn 0.0980 0.9952 -0.0000
vn 0.2903 0.9569 -0.0000
vn 0.4714 0.8819 -0.0000
vn 0.6344 0.7730 -0.0000
vn 0.7730 0.6344 -0.0000
vn 0.8819 0.4714 -0.0000
vn 0.9569 0.2903 -0.0000
vn 0.9952 0.0980 -0.0000
vn 0.9952 -0.0980 -0.0000
vn 0.9569 -0.2903 -0.0000
vn 0.8819 -0.4714 -0.0000
vn 0.7730 -0.6344 -0.0000
vn 0.6344 -0.7730 -0.0000
vn 0.4714 -0.8819 -0.0000
vn 0.2903 -0.9569 -0.0000
vn 0.0980 -0.9952 -0.0000
vt 0.383333 0.775000
vt 0.616667 0.775000
vt 0.616667 0.975000
vt 0.383333 0.975000
vt 0.383333 0.562500
vt 0.616667 0.562500
vt 0.616667 0.687500
vt 0.383333 0.687500
vt 0.650000 0.562500
vt 0.850000 0.562500
vt 0.850000 0.687500
vt 0.650000 0.687500
vt 0.383333 0.062500
vt 0.616667 0.062500
vt 0.616667 0.187500
vt 0.383333 0.187500
vt 0.383333 0.275000
vt 0.616667 0.275000
vt 0.616667 0.475000
vt 0.383333 0.475000
vt 0.150000 0.687500
vt 0.150000 0.750000
vt 0.135566 0.750000
vt 0.125000 0.687500
vt 0.383333 1.000000
vt 0.378522 1.000000
vt 0.375000 0.975000
vt 0.375000 0.062500
vt 0.375000 0.026416
vt 0.383333 0.000000
vt 0.625000 0.975000
vt 0.625000 0.989434
vt 0.616667 1.000000
vt 0.875000 0.687500
vt 0.875000 0.723584
vt 0.850000 0.750000
vt 0.616667 0.000000
vt 0.621478 0.000000
vt 0.625000 0.062500
vt 0.150000 0.562500
vt 0.125000 0.562500
vt 0.125000 0.526416
vt 0.150000 0.500000
vt 0.383333 0.250000
vt 0.378522 0.250000
vt 0.375000 0.187500
vt 0.375000 0.275000
vt 0.375000 0.260566
vt 0.850000 0.500000
vt 0.864434 0.500000
vt 0.875000 0.562500
vt 0.616667 0.250000
vt 0.621478 0.250000
vt 0.625000 0.275000
vt 0.625000 0.187500
vt 0.625000 0.223584
vt 0.350000 0.687500
vt 0.375000 0.687500
vt 0.376174 0.744717
vt 0.350000 0.750000
vt 0.383333 0.750000
vt 0.375000 0.775000
vt 0.650000 0.750000
vt 0.627348 0.741195
vt 0.625000 0.687500
vt 0.616667 0.750000
vt 0.625000 0.775000
vt 0.350000 0.562500
vt 0.350000 0.500000
vt 0.372652 0.508805
vt 0.375000 0.562500
vt 0.383333 0.500000
vt 0.375000 0.475000
vt 0.625000 0.562500
vt 0.623826 0.505283
vt 0.650000 0.500000
vt 0.616667 0.500000
vt 0.625000 0.475000
vt 1.000000 1.000000
vt 1.000000 0.500000
vt 0.968750 0.530650
vt 0.968750 1.000000
vt 0.937500 1.000000
vt 0.937500 0.530072
vt 0.906250 1.000000
vt 0.906250 0.529540
vt 0.900125 0.529449
vt 0.875000 0.528294
vt 0.875000 1.000000
vt 0.843750 0.527115
vt 0.843750 1.000000
vt 0.812500 0.526239
vt 0.812500 1.000000
vt 0.781250 0.525699
vt 0.781250 1.000000
vt 0.750000 0.525517
vt 0.750000 1.000000
vt 0.718750 0.525699
vt 0.718750 1.000000
vt 0.687500 0.526239
vt 0.687500 1.000000
vt 0.656250 0.527115
vt 0.656250 1.000000
vt 0.625000 0.528294
vt 0.625000 1.000000
vt 0.599875 0.529449
vt 0.593750 0.529540
vt 0.593750 1.000000
vt 0.562500 0.530072
vt 0.562500 1.000000
vt 0.531250 0.530650
vt 0.531250 1.000000
vt 0.500000 0.531250
vt 0.500000 1.000000
vt 0.468750 0.530650
vt 0.468750 1.000000
vt 0.437500 0.530072
vt 0.437500 1.000000
vt 0.406250 0.529540
vt 0.406250 1.000000
vt 0.400125 0.529449
vt 0.375000 0.528294
vt 0.375000 1.000000
vt 0.343750 1.000000
vt 0.343750 0.527115
vt 0.312500 1.000000
vt 0.312500 0.526239
vt 0.281250 1.000000
vt 0.281250 0.525699
vt 0.250000 1.000000
vt 0.250000 0.525517
vt 0.218750 0.525699
vt 0.218750 1.000000
vt 0.187500 0.526239
vt 0.187500 1.000000
vt 0.156250 0.527115
vt 0.156250 1.000000
vt 0.125000 0.528294
vt 0.125000 1.000000
vt 0.099875 0.529449
vt 0.093750 0.529540
vt 0.093750 1.000000
vt 0.062500 0.530072
vt 0.062500 1.000000
vt 0.296822 0.485388
vt 0.341844 0.471731
vt 0.383337 0.449553
vt 0.419706 0.419706
vt 0.449553 0.383337
vt 0.471731 0.341844
vt 0.485388 0.296822
vt 0.490000 0.250000
vt 0.485388 0.203178
vt 0.471731 0.158156
vt 0.449553 0.116663
vt 0.419706 0.080294
vt 0.383337 0.050447
vt 0.341844 0.028269
vt 0.296822 0.014612
vt 0.250000 0.010000
vt 0.203178 0.014612
vt 0.158156 0.028269
vt 0.116663 0.050447
vt 0.080294 0.080294
vt 0.050447 0.116663
vt 0.028269 0.158156
vt 0.014612 0.203178
vt 0.010000 0.250000
vt 0.014612 0.296822
vt 0.028269 0.341844
vt 0.050447 0.383337
vt 0.080294 0.419706
vt 0.116663 0.449553
vt 0.158156 0.471731
vt 0.203178 0.485388
vt 0.250000 0.490000
vt 0.031250 0.530650
vt 0.031250 1.000000
vt 0.000000 0.531250
vt 0.000000 1.000000
vt 0.989583 0.995200
vt 0.979567 0.980971
vt 0.970336 0.957870
vt 0.968750 0.951774
vt 0.968750 0.500000
vt 0.968750 0.548226
vt 0.970336 0.542136
vt 0.979567 0.519031
vt 0.989583 0.504808
vt 0.937500 0.500000
vt 0.961985 0.926776
vt 0.955079 0.888892
vt 0.949948 0.845670
vt 0.946788 0.798773
vt 0.945721 0.750000
vt 0.946788 0.701227
vt 0.949948 0.654329
vt 0.955079 0.611107
vt 0.961985 0.573223
vt 0.906250 0.500000
vt 0.875000 0.500000
vt 0.843750 0.500000
vt 0.812500 0.500000
vt 0.781250 0.500000
vt 0.750000 0.500000
vt 0.718750 0.500000
vt 0.687500 0.500000
vt 0.656250 0.500000
vt 0.625000 0.500000
vt 0.593750 0.500000
vt 0.562500 0.500000
vt 0.531250 0.500000
vt 0.500000 0.500000
vt 0.468750 0.500000
vt 0.437500 0.500000
vt 0.406250 0.500000
vt 0.375000 0.500000
vt 0.343750 0.500000
vt 0.312500 0.500000
vt 0.281250 0.500000
vt 0.250000 0.500000
vt 0.218750 0.500000
vt 0.187500 0.500000
vt 0.156250 0.500000
vt 0.125000 0.500000
vt 0.093750 0.500000
vt 0.062500 0.500000
vt 0.028269 0.341844
vt 0.014612 0.296822
vt 0.031250 0.500000
vt 0.031250 0.548226
vt 0.038015 0.573223
vt 0.044921 0.611107
vt 0.050052 0.654329
vt 0.053212 0.701227
vt 0.054279 0.750000
vt 0.053212 0.798773
vt 0.050052 0.845670
vt 0.044921 0.888892
vt 0.038015 0.926776
vt 0.031250 0.951774
vt 0.029664 0.957870
vt 0.020433 0.980971
vt 0.010417 0.995200
vt 0.000000 0.500000
vt 0.010417 0.504808
vt 0.020433 0.519031
vt 0.029664 0.542136
vt 0.580294 0.080294
vt 0.550447 0.116663
vt 0.528269 0.158156
vt 0.514612 0.203178
vt 0.510000 0.250000
vt 0.616663 0.050447
vt 0.658156 0.028269
vt 0.703178 0.485388
vt 0.750000 0.490000
vt 0.796822 0.485388
vt 0.841844 0.471731
vt 0.883337 0.449553
vt 0.919706 0.419706
vt 0.949553 0.383337
vt 0.971731 0.341844
vt 0.985388 0.296822
vt 0.990000 0.250000
s 0
f 61/1/1 73/2/1 15/3/1 3/4/1
f 89/5/2 101/6/2 75/7/2 60/8/2
f 99/9/3 43/10/3 18/11/3 72/12/3
f 5/13/4 20/14/4 48/15/4 31/16/4
f 33/17/5 46/18/5 103/19/5 88/20/5
f 1/21/6 8/22/6 10/23/6 13/24/6
f 3/4/7 11/25/7 10/26/7 8/27/7
f 5/13/8 13/28/8 10/29/8 11/30/8
f 15/3/9 22/31/9 24/32/9 28/33/9
f 18/11/10 26/34/10 24/35/10 22/36/10
f 20/14/11 28/37/11 24/38/11 26/39/11
f 29/40/12 36/41/12 37/42/12 41/43/12
f 31/16/13 39/44/13 37/45/13 36/46/13
f 33/17/14 41/47/14 37/48/14 39/44/14
f 43/10/15 49/49/15 52/50/15 55/51/15
f 46/18/16 54/52/16 52/53/16 49/54/16
f 48/15/17 55/55/17 52/56/17 54/52/17
f 57/57/18 64/58/18 66/59/18 70/60/18
f 60/8/19 68/61/19 66/59/19 64/58/19
f 61/1/20 70/62/20 66/59/20 68/61/20
f 72/12/21 77/63/21 79/64/21 83/65/21
f 73/2/22 81/66/22 79/64/22 77/67/22
f 75/7/23 83/65/23 79/64/23 81/66/23
f 85/68/24 92/69/24 94/70/24 98/71/24
f 88/20/25 96/72/25 94/70/25 92/73/25
f 89/5/26 98/71/26 94/70/26 96/72/26
f 99/9/27 106/74/27 107/75/27 112/76/27
f 101/6/28 110/77/28 107/75/28 106/74/28
f 103/19/29 112/78/29 107/75/29 110/77/29
f 29/40/30 1/21/30 13/24/30 36/41/30
f 36/46/31 13/28/31 5/13/31 31/16/31
f 3/4/32 15/3/32 28/33/32 11/25/32
f 11/30/33 28/37/33 20/14/33 5/13/33
f 18/11/34 43/10/34 55/51/34 26/34/34
f 26/39/35 55/55/35 48/15/35 20/14/35
f 46/18/36 33/17/36 39/44/36 54/52/36
f 54/52/37 39/44/37 31/16/37 48/15/37
f 85/68/38 29/40/38 41/43/38 92/69/38
f 92/73/39 41/47/39 33/17/39 88/20/39
f 43/10/40 99/9/40 112/76/40 49/49/40
f 49/54/41 112/78/41 103/19/41 46/18/41
f 101/6/42 89/5/42 96/72/42 110/77/42
f 110/77/43 96/72/43 88/20/43 103/19/43
f 57/57/44 85/68/44 98/71/44 64/58/44
f 64/58/45 98/71/45 89/5/45 60/8/45
f 99/9/46 72/12/46 83/65/46 106/74/46
f 106/74/47 83/65/47 75/7/47 101/6/47
f 73/2/48 61/1/48 68/61/48 81/66/48
f 81/66/49 68/61/49 60/8/49 75/7/49
f 1/21/50 57/57/50 70/60/50 8/22/50
f 8/27/51 70/62/51 61/1/51 3/4/51
f 72/12/52 18/11/52 22/36/52 77/63/52
f 77/67/53 22/31/53 15/3/53 73/2/53
f 29/40/54 85/68/54 57/57/54 1/21/54
f 6/79/55 2/80/55 155/81/55 12/82/55
f 17/83/56 12/82/56 155/81/56 156/84/56
f 23/85/57 17/83/57 156/84/57 157/86/57
f 23/85/58 157/86/58 159/87/58 158/88/58 32/89/58
f 158/88/59 160/90/59 35/91/59 32/89/59
f 160/90/60 161/92/60 42/93/60 35/91/60
f 161/92/61 162/94/61 50/95/61 42/93/61
f 162/94/62 163/96/62 56/97/62 50/95/62
f 163/96/63 164/98/63 62/99/63 56/97/63
f 164/98/64 165/100/64 65/101/64 62/99/64
f 165/100/65 166/102/65 71/103/65 65/101/65
f 166/102/66 167/104/66 78/105/66 71/103/66
f 78/105/67 167/104/67 169/106/67 168/107/67 84/108/67
f 168/107/68 170/109/68 90/110/68 84/108/68
f 170/109/69 171/111/69 95/112/69 90/110/69
f 171/111/70 7/113/70 104/114/70 95/112/70
f 7/113/71 172/115/71 111/116/71 104/114/71
f 172/115/72 173/117/72 115/118/72 111/116/72
f 173/117/73 174/119/73 118/120/73 115/118/73
f 118/120/74 174/119/74 175/121/74 176/122/74 121/123/74
f 124/124/75 121/123/75 176/122/75 177/125/75
f 126/126/76 124/124/76 177/125/76 178/127/76
f 129/128/77 126/126/77 178/127/77 179/129/77
f 133/130/78 129/128/78 179/129/78 180/131/78
f 180/131/79 181/132/79 136/133/79 133/130/79
f 181/132/80 182/134/80 139/135/80 136/133/80
f 182/134/81 183/136/81 142/137/81 139/135/81
f 183/136/82 184/138/82 145/139/82 142/137/82
f 145/139/83 184/138/83 186/140/83 185/141/83 147/142/83
f 185/141/84 187/143/84 151/144/84 147/142/84
f 12/145/54 17/146/54 23/147/54 32/148/54 35/149/54 42/150/54 50/151/54 56/152/54 62/153/54 65/154/54 71/155/54 78/156/54 84/157/54 90/158/54 95/159/54 104/160/54 111/161/54 115/162/54 118/163/54 121/164/54 124/165/54 126/166/54 129/167/54 133/168/54 136/169/54 139/170/54 142/171/54 145/172/54 147/173/54 151/174/54 154/175/54 6/176/54
f 187/143/85 188/177/85 154/178/85 151/144/85
f 188/177/86 2/179/86 6/180/86 154/178/86
f 14/82/87 7/79/87 171/181/87 170/182/87 168/183/87 169/184/87
f 9/185/87 159/186/87 157/187/87 156/188/87 155/189/87 2/80/87
f 16/190/88 19/83/88 14/82/88 169/184/88 167/191/88 166/192/88 165/193/88 164/194/88 163/195/88 162/196/88 161/197/88 160/198/88 158/199/88 159/186/88 9/185/88
f 16/190/89 21/200/89 25/85/89 19/83/89
f 21/200/90 27/201/90 30/89/90 25/85/90
f 27/201/91 34/202/91 38/91/91 30/89/91
f 34/202/92 40/203/92 44/93/92 38/91/92
f 40/203/93 45/204/93 47/95/93 44/93/93
f 45/204/94 51/205/94 53/97/94 47/95/94
f 51/205/95 58/206/95 59/99/95 53/97/95
f 58/206/96 63/207/96 67/101/96 59/99/96
f 63/207/97 69/208/97 74/103/97 67/101/97
f 69/208/98 76/209/98 80/105/98 74/103/98
f 76/209/99 82/210/99 86/108/99 80/105/99
f 82/210/100 87/211/100 91/110/100 86/108/100
f 87/211/101 93/212/101 97/112/101 91/110/101
f 93/212/102 102/213/102 105/114/102 97/112/102
f 102/213/103 108/214/103 109/116/103 105/114/103
f 108/214/104 113/215/104 114/118/104 109/116/104
f 113/215/105 116/216/105 117/120/105 114/118/105
f 116/216/106 119/217/106 120/123/106 117/120/106
f 119/217/107 122/218/107 123/124/107 120/123/107
f 122/218/108 125/219/108 127/126/108 123/124/108
f 125/219/109 128/220/109 130/128/109 127/126/109
f 128/220/110 131/221/110 132/130/110 130/128/110
f 131/221/111 134/222/111 135/133/111 132/130/111
f 134/222/112 137/223/112 138/135/112 135/133/112
f 137/223/113 140/224/113 141/137/113 138/135/113
f 140/224/114 143/225/114 144/139/114 141/137/114
f 143/225/115 146/226/115 148/142/115 144/139/115
f 146/226/116 149/227/116 150/144/116 148/142/116
f 100/176/5 19/146/5 25/157/5 30/156/5 38/155/5 44/154/5 47/153/5 53/152/5 59/153/5 67/154/5 74/155/5 80/156/5 86/157/5 91/146/5 97/145/5 105/176/5 109/175/5 114/174/5 117/173/5 120/172/5 123/171/5 127/228/5 130/229/5 132/168/5 135/229/5 138/228/5 141/171/5 144/172/5 148/173/5 150/174/5 153/175/5 7/176/5
f 100/176/5 7/176/5 14/145/5 19/146/5
f 150/144/117 149/227/117 152/230/117 186/231/117 184/232/117 183/233/117 182/234/117 181/235/117 180/236/117 179/237/117 178/238/117 177/239/117 176/240/117 175/241/117 153/178/117
f 153/178/118 175/241/118 174/242/118 173/243/118 172/244/118 7/180/118
f 152/230/118 2/245/118 188/246/118 187/247/118 185/248/118 186/231/118
f 143/249/1 140/250/1 137/251/1 134/252/1 131/253/1 128/252/1 125/251/1 122/250/1 119/249/1 116/254/1 113/255/1 108/256/1 102/257/1 93/258/1 87/259/1 82/260/1 76/261/1 69/262/1 63/263/1 58/264/1 51/265/1 45/264/1 40/263/1 34/262/1 27/261/1 21/260/1 16/259/1 9/258/1 2/257/1 4/257/1 152/256/1 149/255/1 146/254/1
f 152/256/1 4/257/1 2/257/1
